<svg width="79" height="80" viewBox="0 0 79 80" fill="none" xmlns="http://www.w3.org/2000/svg">
<path style="mix-blend-mode:color-dodge" opacity="0.7" d="M39.4914 79.05C61.302 79.05 78.9829 61.3541 78.9829 39.525C78.9829 17.6959 61.302 0 39.4914 0C17.6809 0 0 17.6959 0 39.525C0 61.3541 17.6809 79.05 39.4914 79.05Z" fill="url(#paint0_radial_8763_46955)"/>
<path opacity="0.3" d="M36.8991 65.2086C54.085 65.2086 68.0169 64.0575 68.0169 62.6375C68.0169 61.2175 54.085 60.0664 36.8991 60.0664C19.7132 60.0664 5.78125 61.2175 5.78125 62.6375C5.78125 64.0575 19.7132 65.2086 36.8991 65.2086Z" fill="url(#paint1_radial_8763_46955)"/>
<path d="M57.1897 55.5603L51.5078 60.1259L52.3827 51.7355C52.3827 51.7355 52.3827 51.7288 52.3827 51.7254L53.7638 38.508L58.2221 34.9246L59.4423 33.9424L57.1863 55.5603H57.1897Z" fill="#ABC4D1"/>
<path d="M59.4419 33.9392L53.7601 38.5048L46.6033 37.3517L32.2461 35.032L37.928 30.4697L47.5352 32.0184L59.4419 33.9392Z" fill="#E6EEF2"/>
<path d="M51.5062 60.122L29.9922 56.6492L30.2805 53.877L30.3777 52.9484L30.6693 50.1427L32.2482 35.0312L46.6053 37.3509L52.552 38.3096L52.9174 38.37L53.7621 38.5041L51.5062 60.122Z" fill="#CFDEE6"/>
<path d="M58.1107 40.5703C57.7722 41.3245 57.142 41.7066 56.7028 41.4284C56.2637 41.1502 56.1833 40.3155 56.5218 39.5613C56.8604 38.807 57.4906 38.4249 57.9297 38.7031C58.3689 38.9813 58.4493 39.816 58.1107 40.5703Z" fill="#EB0C1E"/>
<path d="M56.1264 48.2529C55.7878 49.0038 55.1576 49.3893 54.7185 49.111C54.2793 48.8328 54.1989 47.9981 54.5375 47.2439C54.876 46.4897 55.5062 46.1075 55.9454 46.3857C56.3845 46.664 56.4649 47.4986 56.1264 48.2529Z" fill="#EB0C1E"/>
<path d="M54.685 55.2441C54.3464 55.9983 53.7162 56.3805 53.2771 56.1022C52.8379 55.824 52.7575 54.9893 53.0961 54.2351C53.4346 53.4809 54.0648 53.0987 54.5039 53.3769C54.9431 53.6552 55.0235 54.4899 54.685 55.2441Z" fill="#EB0C1E"/>
<path d="M47.9361 49.9213C47.3227 49.8945 46.8567 49.1972 46.897 48.3693C46.9372 47.5413 47.4635 46.891 48.0769 46.9178C48.6903 46.9446 49.1563 47.6419 49.1161 48.4698C49.0758 49.2978 48.5496 49.9481 47.9361 49.9213Z" fill="#308FBF"/>
<path d="M37.2564 48.4184C36.643 48.3916 36.177 47.6943 36.2173 46.8663C36.2541 46.035 36.7838 45.388 37.3972 45.4149C38.0107 45.4417 38.4766 46.1389 38.4364 46.9669C38.3995 47.7949 37.8699 48.4452 37.2564 48.4184Z" fill="#308FBF"/>
<path d="M47.8902 34.8208C47.689 35.2466 46.8812 35.4142 46.0834 35.1929C45.2889 34.975 44.8096 34.4521 45.0107 34.0264C45.2118 33.6007 46.0197 33.4331 46.8175 33.6543C47.6119 33.8722 48.0913 34.3951 47.8902 34.8208Z" fill="#EB0C1E"/>
<g style="mix-blend-mode:darken" opacity="0.1">
<path d="M57.1897 55.5608L51.5078 60.1264L52.3827 51.7361C52.366 51.9707 52.128 56.0737 54.6823 55.2491C57.3036 54.4044 58.2188 35.0525 58.2221 34.9285L59.4423 33.9463L57.1863 55.5642L57.1897 55.5608Z" fill="#2C3D85"/>
</g>
<g style="mix-blend-mode:darken" opacity="0.1">
<path d="M51.5062 60.1219L29.9922 56.6491L30.3777 52.9483C31.1017 53.7026 32.275 54.43 34.1522 54.9496C40.0787 56.5854 46.3338 57.7855 49.3574 54.7585C52.1531 51.9628 52.5118 40.0929 52.552 38.3096L53.7621 38.504L51.5062 60.1219Z" fill="#2C3D85"/>
</g>
<g style="mix-blend-mode:darken" opacity="0.1">
<path d="M51.5062 60.1255L29.9922 56.6526L30.2805 53.8804C31.8392 55.3185 34.8662 57.0448 40.5983 57.5242C50.9095 58.3857 51.0436 53.4581 51.895 50.8535C52.5084 48.9729 52.8034 42.0742 52.9174 38.3701L53.7621 38.5042L51.5062 60.1221V60.1255Z" fill="#2C3D85"/>
</g>
<g style="mix-blend-mode:darken" opacity="0.25">
<path d="M44.7536 47.8991C44.7536 47.8991 35.4045 52.9005 34.5933 52.6189C34.0838 52.4413 32.0893 51.1105 30.668 50.135L30.9261 47.6645L32.2435 35.0236L37.9253 30.458L46.2218 31.7989L47.5359 32.01L47.2241 33.7967L46.966 35.2717L46.604 37.3399L44.757 47.8958L44.7536 47.8991Z" fill="#2C3D85"/>
</g>
<g style="mix-blend-mode:darken" opacity="0.25">
<path d="M43.9667 44.7175C43.9667 44.7175 34.6176 49.7189 33.8064 49.4373C33.4142 49.2999 32.1437 48.482 30.9336 47.6674L32.251 35.0265L37.9328 30.4609L46.2294 31.8018L46.1791 32.0934L45.817 34.1617L43.97 44.7175H43.9667Z" fill="#2C3D85"/>
</g>
<path d="M43.4056 44.611L39.0311 46.2536L35.1325 47.7151L34.2844 47.467L18.1305 42.7472L17.3931 42.5293L14.832 41.7818L23.1051 38.6777L43.4056 44.611Z" fill="#ABC4D1"/>
<path d="M23.1051 38.6766L14.832 41.7807L15.3147 39.4644L15.5192 38.4855L19.277 20.441L25.3141 18.1749L26.0449 17.9001L27.5467 17.3369L23.1051 38.6766Z" fill="#E6EEF2"/>
<path d="M43.4021 44.6099L23.3664 38.7537L23.1016 38.6766L23.2055 38.1738L23.3295 37.5704L27.5431 17.3369L44.8904 22.4087L47.8436 23.2702L43.4021 44.6099Z" fill="#CFDEE6"/>
<path d="M36.8132 31.6627C36.431 32.4002 35.5226 32.6885 34.7852 32.3064C34.0477 31.9242 33.7594 31.0158 34.1415 30.2783C34.5237 29.5408 35.4321 29.2526 36.1696 29.6347C36.9071 30.0169 37.1953 30.9253 36.8132 31.6627Z" fill="#EB0C1E"/>
<path d="M45.2819 26.4303C44.8998 27.1678 43.9914 27.4561 43.2539 27.0739C42.5164 26.6918 42.2282 25.7834 42.6103 25.0459C42.9924 24.3084 43.9009 24.0201 44.6383 24.4023C45.3758 24.7844 45.6641 25.6929 45.2819 26.4303Z" fill="#EB0C1E"/>
<path d="M42.2273 40.8249C41.8451 41.5623 40.9367 41.8506 40.1992 41.4685C39.4617 41.0863 39.1735 40.1779 39.5556 39.4404C39.9377 38.703 40.8462 38.4147 41.5836 38.7968C42.3211 39.179 42.6094 40.0874 42.2273 40.8249Z" fill="#EB0C1E"/>
<path d="M28.1843 36.7516C27.8021 37.4891 26.8937 37.7774 26.1562 37.3952C25.4188 37.0131 25.1305 36.1047 25.5126 35.3672C25.8948 34.6297 26.8032 34.3414 27.5407 34.7236C28.2781 35.1057 28.5664 36.0141 28.1843 36.7516Z" fill="#EB0C1E"/>
<path d="M31.4226 22.4918C31.0404 23.2293 30.132 23.5176 29.3945 23.1355C28.6571 22.7533 28.3688 21.8449 28.7509 21.1074C29.1331 20.3699 30.0415 20.0817 30.779 20.4638C31.5164 20.846 31.8047 21.7544 31.4226 22.4918Z" fill="#EB0C1E"/>
<path d="M25.5473 22.4764C25.2222 23.234 24.6858 23.6496 24.3506 23.4083C24.0121 23.1669 24.002 22.3557 24.3272 21.5981C24.6523 20.8406 25.1887 20.4249 25.5239 20.6662C25.8624 20.9076 25.8725 21.7188 25.5473 22.4764Z" fill="#308FBF"/>
<path d="M20.4614 24.0242C20.1362 24.7818 19.5999 25.1975 19.2647 24.9561C18.9261 24.7148 18.9161 23.9036 19.2412 23.146C19.5664 22.3884 20.1027 21.9727 20.4379 22.2141C20.7765 22.4555 20.7866 23.2667 20.4614 24.0242Z" fill="#308FBF"/>
<path d="M24.1059 29.4305C23.7808 30.1881 23.2444 30.6037 22.9092 30.3624C22.5707 30.121 22.5606 29.3098 22.8858 28.5522C23.2109 27.7947 23.7473 27.379 24.0825 27.6203C24.421 27.8617 24.4311 28.6729 24.1059 29.4305Z" fill="#308FBF"/>
<path d="M19.1958 30.908C18.8706 31.6656 18.3343 32.0813 17.9991 31.8399C17.6605 31.5986 17.6504 30.7874 17.9756 30.0298C18.3008 29.2722 18.8371 28.8565 19.1723 29.0979C19.5109 29.3392 19.5209 30.1505 19.1958 30.908Z" fill="#308FBF"/>
<path d="M23.0591 36.3963C22.7339 37.1539 22.1976 37.5696 21.8623 37.3282C21.5238 37.0869 21.5137 36.2756 21.8389 35.5181C22.164 34.7605 22.7004 34.3448 23.0356 34.5862C23.3742 34.8275 23.3842 35.6387 23.0591 36.3963Z" fill="#308FBF"/>
<path d="M17.9887 37.6961C17.6636 38.4537 17.1272 38.8694 16.792 38.628C16.4535 38.3867 16.4434 37.5754 16.7686 36.8179C17.0937 36.0603 17.6301 35.6446 17.9653 35.886C18.3038 36.1273 18.3139 36.9385 17.9887 37.6961Z" fill="#308FBF"/>
<path d="M30.4216 43.9829C30.2205 44.4087 29.4126 44.5763 28.6148 44.355C27.817 44.1338 27.341 43.6142 27.5421 43.1885C27.7433 42.7628 28.5511 42.5952 29.3489 42.8164C30.1434 43.0343 30.6227 43.5572 30.4216 43.9829Z" fill="#EB0C1E"/>
<g style="mix-blend-mode:darken" opacity="0.1">
<path d="M43.4056 44.6114L39.0344 46.2506C36.9661 44.9735 32.1592 42.389 26.7321 42.1007C22.6358 41.8794 19.4177 42.2046 17.3931 42.5298L14.832 41.7789L23.1017 38.6748L43.4022 44.6114H43.4056Z" fill="#2C3D85"/>
</g>
<g style="mix-blend-mode:darken" opacity="0.1">
<path d="M43.4061 44.611L39.035 46.2502L35.1364 47.7151L34.2883 47.467C35.1834 46.9173 36.1253 46.086 36.5745 44.8892C37.5734 42.2276 27.0142 40.2532 23.7694 39.9918C22.1872 39.8644 19.9815 41.2723 18.1344 42.7472L17.397 42.5327L14.8359 41.7818L23.1056 38.6777L43.4061 44.6144V44.611Z" fill="#2C3D85"/>
</g>
<g style="mix-blend-mode:darken" opacity="0.1">
<path d="M43.4021 44.6078L23.1016 38.6712L23.2055 38.1684L23.3329 37.565C25.0391 37.7829 33.4932 38.7684 38.2197 37.6052C42.8825 36.4555 46.486 26.7544 44.8938 22.4033L47.8436 23.2648L43.4021 44.6045V44.6078Z" fill="#2C3D85"/>
</g>
<g style="mix-blend-mode:darken" opacity="0.1">
<path d="M23.1056 38.6762L14.8359 41.7803L15.5231 38.4851C17.0886 38.8371 19.663 38.8136 21.8654 35.9207C24.9091 31.9216 25.2745 20.6853 25.3214 18.1779L27.5539 17.3398L23.109 38.6795L23.1056 38.6762Z" fill="#2C3D85"/>
</g>
<g style="mix-blend-mode:darken" opacity="0.1">
<path d="M23.1056 38.6766L14.8359 41.7807L15.3186 39.4677C15.8248 39.7694 16.4517 39.9605 17.2227 39.9269C20.0988 39.8063 23.2431 37.8252 24.4029 30.8963C25.2946 25.5731 25.8443 20.1326 26.0488 17.9001L27.5506 17.3369L23.1056 38.6766Z" fill="#2C3D85"/>
</g>
<path style="mix-blend-mode:screen" opacity="0.55" d="M19.8418 21.3772C18.8262 22.5203 16.4629 35.6841 17.0328 37.1389C17.6026 38.5938 20.9078 37.6987 23.0364 29.7005C25.165 21.7023 24.6354 21.4711 24.1527 21.0219C23.67 20.5727 21.0989 19.9592 19.8418 21.3772Z" fill="url(#paint2_linear_8763_46955)"/>
<path style="mix-blend-mode:screen" opacity="0.55" d="M28.5492 20.6491C26.3535 22.523 24.4093 34.0241 25.6898 36.4343C26.9703 38.8411 35.5585 37.9595 39.9934 34.4197C44.4282 30.8832 43.4259 27.1556 43.1142 25.4427C42.8024 23.7297 30.7448 18.7753 28.5525 20.6491H28.5492Z" fill="url(#paint3_linear_8763_46955)"/>
<path style="mix-blend-mode:screen" opacity="0.55" d="M29.1641 21.2323C27.5249 22.3721 26.05 24.8929 26.3215 28.9657C26.593 33.0352 35.7008 33.1525 38.0238 28.6741C40.3468 24.1956 30.8 20.096 29.1641 21.2357V21.2323Z" fill="url(#paint4_linear_8763_46955)"/>
<g style="mix-blend-mode:screen" opacity="0.95">
<path d="M28.6758 19.2455C29.9161 19.4802 31.1396 19.7651 32.3598 20.0702C33.5799 20.3719 34.7934 20.7004 36.0035 21.0423C37.2103 21.3876 38.4171 21.7462 39.6138 22.1351C40.8105 22.5206 42.0038 22.9228 43.1804 23.3787C41.9402 23.1474 40.7133 22.8591 39.4965 22.5541C38.2763 22.2524 37.0628 21.9239 35.8527 21.5786C34.6459 21.2334 33.4392 20.8713 32.2424 20.4858C31.0457 20.1003 29.8524 19.6981 28.6758 19.2422V19.2455Z" fill="white"/>
</g>
<g style="mix-blend-mode:screen" opacity="0.95">
<path d="M19.561 21.8896C19.4202 23.0897 19.2258 24.2764 19.0146 25.4597C18.8068 26.643 18.5688 27.8229 18.3174 28.9962C18.0626 30.1694 17.7944 31.3427 17.4995 32.5059C17.2078 33.6724 16.8927 34.8322 16.5273 35.982C16.6681 34.7819 16.8592 33.5953 17.0737 32.412C17.2849 31.2287 17.5196 30.0487 17.7743 28.8755C18.0291 27.7022 18.2973 26.529 18.5956 25.3658C18.8872 24.1993 19.2023 23.0394 19.5677 21.8896H19.561Z" fill="white"/>
</g>
<path style="mix-blend-mode:screen" opacity="0.55" d="M48.0552 33.119C48.0016 33.2195 47.5558 36.3672 47.9178 36.7963C48.2798 37.2253 53.0633 37.9561 53.5829 37.8555C54.0991 37.7583 57.5518 35.3716 57.6457 34.5168C57.7396 33.662 48.5447 32.224 48.0552 33.119Z" fill="url(#paint5_linear_8763_46955)"/>
<path style="mix-blend-mode:screen" opacity="0.55" d="M36.5049 52.7461C36.5049 52.7461 44.6506 49.5012 45.4518 48.2374C46.2529 46.9737 47.1513 40.7387 48.4352 39.6526C49.719 38.5665 51.7202 39.0191 52.089 39.8403C52.4544 40.665 51.4856 51.7035 48.7067 54.5294C45.9278 57.3552 35.5496 55.8702 35.6769 54.0869C35.8043 52.3036 36.5083 52.7427 36.5083 52.7427L36.5049 52.7461Z" fill="url(#paint6_linear_8763_46955)"/>
<g style="mix-blend-mode:screen" opacity="0.95">
<path d="M53.8438 37.353C54.1387 36.9977 54.4672 36.6893 54.8058 36.3909C55.1444 36.0959 55.4963 35.8211 55.8584 35.5596C56.2204 35.2981 56.5958 35.0534 56.9813 34.8255C57.3702 34.5975 57.7657 34.3864 58.1982 34.2188C57.9032 34.5741 57.5747 34.8858 57.2395 35.1808C56.9009 35.4758 56.5489 35.7507 56.1869 36.0121C55.8249 36.2736 55.4494 36.5183 55.0639 36.7463C54.6751 36.9709 54.2795 37.1854 53.8471 37.353H53.8438Z" fill="white"/>
</g>
<g style="mix-blend-mode:screen" opacity="0.55">
<path d="M54.2383 39.6768C54.2383 40.783 54.1881 41.8825 54.1177 42.9786C54.0506 44.0781 53.9534 45.1709 53.8428 46.2637C53.7288 47.3565 53.6014 48.4493 53.4439 49.5387C53.2897 50.6282 53.1187 51.7143 52.8908 52.797C52.8874 51.6908 52.9377 50.5913 53.0115 49.4951C53.0785 48.3957 53.1757 47.3029 53.2863 46.2101C53.4003 45.1173 53.5277 44.0245 53.6852 42.935C53.8394 41.8456 54.0104 40.7595 54.2383 39.6768Z" fill="white"/>
</g>
<defs>
<radialGradient id="paint0_radial_8763_46955" cx="0" cy="0" r="1" gradientUnits="userSpaceOnUse" gradientTransform="translate(39.6027 40.331) scale(39.635 39.6351)">
<stop stop-color="#33FFC5"/>
<stop offset="0.11" stop-color="#34EFBB"/>
<stop offset="0.34" stop-color="#3AC5A2"/>
<stop offset="1" stop-color="#4D2F48" stop-opacity="0"/>
</radialGradient>
<radialGradient id="paint1_radial_8763_46955" cx="0" cy="0" r="1" gradientUnits="userSpaceOnUse" gradientTransform="translate(37.0007 65.2383) scale(31.2408 2.6034)">
<stop stop-color="#33F5FF"/>
<stop offset="0.12" stop-color="#35E5F0"/>
<stop offset="0.35" stop-color="#3ABBC9"/>
<stop offset="0.68" stop-color="#43788C"/>
<stop offset="1" stop-color="#4D2F48"/>
</radialGradient>
<linearGradient id="paint2_linear_8763_46955" x1="17.3935" y1="28.0815" x2="23.0041" y2="30.032" gradientUnits="userSpaceOnUse">
<stop offset="0.01" stop-color="#FFF899"/>
<stop offset="1" stop-color="#FFF899"/>
</linearGradient>
<linearGradient id="paint3_linear_8763_46955" x1="25.6471" y1="27.4137" x2="42.0767" y2="33.1254" gradientUnits="userSpaceOnUse">
<stop offset="0.01" stop-color="#FFF899"/>
<stop offset="1" stop-color="#FFF899"/>
</linearGradient>
<linearGradient id="paint4_linear_8763_46955" x1="26.5837" y1="25.1858" x2="37.8967" y2="29.1187" gradientUnits="userSpaceOnUse">
<stop offset="0.01" stop-color="#FFF899"/>
<stop offset="1" stop-color="#FFF899"/>
</linearGradient>
<linearGradient id="paint5_linear_8763_46955" x1="56.956" y1="35.2163" x2="47.6953" y2="35.425" gradientUnits="userSpaceOnUse">
<stop offset="0.01" stop-color="#FFF899"/>
<stop offset="1" stop-color="#FFF899"/>
</linearGradient>
<linearGradient id="paint6_linear_8763_46955" x1="50.1812" y1="51.9317" x2="41.2461" y2="45.0174" gradientUnits="userSpaceOnUse">
<stop offset="0.01" stop-color="#FFF899"/>
<stop offset="1" stop-color="#FFF899"/>
</linearGradient>
</defs>
</svg>
