<svg width="20" height="20" viewBox="0 0 20 20" fill="none" xmlns="http://www.w3.org/2000/svg">
<path d="M1.66536 4.5835H11.6654C11.8864 4.5835 12.0983 4.51765 12.2546 4.40044C12.4109 4.28323 12.4987 4.12426 12.4987 3.9585C12.4987 3.79274 12.4109 3.63376 12.2546 3.51655C12.0983 3.39934 11.8864 3.3335 11.6654 3.3335H1.66536C1.44435 3.3335 1.23239 3.39934 1.07611 3.51655C0.919829 3.63376 0.832031 3.79274 0.832031 3.9585C0.832031 4.12426 0.919829 4.28323 1.07611 4.40044C1.23239 4.51765 1.44435 4.5835 1.66536 4.5835Z" fill="#B1B3C3"/>
<path d="M11.6654 14.5H1.66536C1.44435 14.5 1.23239 14.579 1.07611 14.7197C0.919829 14.8603 0.832031 15.0511 0.832031 15.25C0.832031 15.4489 0.919829 15.6397 1.07611 15.7803C1.23239 15.921 1.44435 16 1.66536 16H11.6654C11.8864 16 12.0983 15.921 12.2546 15.7803C12.4109 15.6397 12.4987 15.4489 12.4987 15.25C12.4987 15.0511 12.4109 14.8603 12.2546 14.7197C12.0983 14.579 11.8864 14.5 11.6654 14.5Z" fill="#B1B3C3"/>
<path d="M15.5823 6.15443C15.4809 6.07335 15.3575 6.02168 15.2266 6.00548C15.0958 5.98927 14.9628 6.0092 14.8433 6.06293C14.7238 6.11665 14.6227 6.20195 14.5519 6.30884C14.481 6.41573 14.4434 6.53977 14.4434 6.66646V9.33329H4.02649C3.84231 9.33329 3.66567 9.40353 3.53543 9.52857C3.4052 9.6536 3.33203 9.82318 3.33203 10C3.33203 10.1768 3.4052 10.3464 3.53543 10.4714C3.66567 10.5965 3.84231 10.6667 4.02649 10.6667H14.4434V13.3335C14.4434 13.4602 14.481 13.5843 14.5519 13.6912C14.6227 13.798 14.7238 13.8833 14.8433 13.9371C14.9628 13.9908 15.0958 14.0107 15.2266 13.9945C15.3575 13.9783 15.4809 13.9267 15.5823 13.8456L19.749 10.512C19.8272 10.4495 19.89 10.3712 19.9332 10.2827C19.9763 10.1942 19.9987 10.0977 19.9987 10C19.9987 9.9023 19.9763 9.8058 19.9332 9.71732C19.89 9.62884 19.8272 9.55054 19.749 9.48797L15.5823 6.15443Z" fill="#B1B3C3"/>
</svg>
