<svg width="20" height="14" viewBox="0 0 20 14" fill="none" xmlns="http://www.w3.org/2000/svg">
<g id="Group">
<path id="Vector" d="M18.3333 12.417H8.33333C8.11232 12.417 7.90036 12.4828 7.74408 12.6C7.5878 12.7173 7.5 12.8762 7.5 13.042C7.5 13.2078 7.5878 13.3667 7.74408 13.4839C7.90036 13.6011 8.11232 13.667 8.33333 13.667H18.3333C18.5543 13.667 18.7663 13.6011 18.9226 13.4839C19.0789 13.3667 19.1667 13.2078 19.1667 13.042C19.1667 12.8762 19.0789 12.7173 18.9226 12.6C18.7663 12.4828 18.5543 12.417 18.3333 12.417Z" fill="#B1B3C3"/>
<path id="Vector_2" d="M4.41774 3.15443C4.51913 3.07335 4.64249 3.02168 4.77336 3.00548C4.90423 2.98927 5.03721 3.0092 5.15671 3.06293C5.27621 3.11665 5.3773 3.20195 5.44813 3.30884C5.51896 3.41573 5.5566 3.53977 5.55665 3.66646V6.33329H15.9735C16.1577 6.33329 16.3343 6.40353 16.4646 6.52857C16.5948 6.6536 16.668 6.82318 16.668 7C16.668 7.17682 16.5948 7.3464 16.4646 7.47143C16.3343 7.59647 16.1577 7.66671 15.9735 7.66671H5.55665V10.3335C5.5566 10.4602 5.51896 10.5843 5.44813 10.6912C5.3773 10.798 5.27621 10.8833 5.15671 10.9371C5.03721 10.9908 4.90423 11.0107 4.77336 10.9945C4.64249 10.9783 4.51913 10.9267 4.41774 10.8456L0.250994 7.51203C0.17284 7.44946 0.109962 7.37117 0.0668163 7.28268C0.0236683 7.1942 0.00130272 7.0977 0.00130272 7C0.00130272 6.9023 0.0236683 6.8058 0.0668163 6.71732C0.109962 6.62884 0.17284 6.55054 0.250994 6.48797L4.41774 3.15443Z" fill="#B1B3C3"/>
<path id="Vector_3" d="M18.3333 0.333496H8.33333C8.11232 0.333496 7.90036 0.399344 7.74408 0.516554C7.5878 0.633765 7.5 0.792736 7.5 0.958496C7.5 1.12426 7.5878 1.28323 7.74408 1.40044C7.90036 1.51765 8.11232 1.5835 8.33333 1.5835H18.3333C18.5543 1.5835 18.7663 1.51765 18.9226 1.40044C19.0789 1.28323 19.1667 1.12426 19.1667 0.958496C19.1667 0.792736 19.0789 0.633765 18.9226 0.516554C18.7663 0.399344 18.5543 0.333496 18.3333 0.333496Z" fill="#B1B3C3"/>
</g>
</svg>
