<svg width="36" height="36" viewBox="0 0 36 36" fill="none" xmlns="http://www.w3.org/2000/svg">
<g id="Social Media Icons / TikTok">
<path d="M0 12C0 5.37258 5.37258 0 12 0H24C30.6274 0 36 5.37258 36 12V24C36 30.6274 30.6274 36 24 36H12C5.37258 36 0 30.6274 0 24V12Z" fill="#1E1B17"/>
<path id="Vector" d="M24.0954 12.2713C22.8035 11.4316 22.0284 10.0013 22.0238 8.46484H18.7572L18.7526 21.5591C18.6926 23.0724 17.4191 24.2536 15.9058 24.1982C14.3924 24.1428 13.2113 22.8602 13.2666 21.3468C13.322 19.8704 14.5355 18.7077 16.0119 18.7077C16.2887 18.7077 16.561 18.7492 16.8239 18.8369V15.501C16.5563 15.4641 16.2841 15.4457 16.0119 15.441C12.6991 15.441 10 18.1402 10 21.4529C10 24.7749 12.6899 27.4648 16.0119 27.4648C19.3339 27.4648 22.0238 24.7749 22.0238 21.4529V14.8136C23.348 15.764 24.9398 16.2762 26.5685 16.2762V13.0095C25.6918 13.0095 24.8337 12.7558 24.0954 12.2713Z" fill="white"/>
</g>
</svg>
