<svg width="36" height="26" viewBox="0 0 36 26" fill="none" xmlns="http://www.w3.org/2000/svg">
<g id="Asset 286" clip-path="url(#clip0_9361_23338)">
<g id="Group">
<g id="Layer 2">
<g id="layer1">
<g id="Group_2">
<path id="Vector" d="M9.29591 3.56885C9.29591 3.56885 8.03966 3.9751 7.71466 4.8626C7.56466 5.2751 7.25216 8.3376 6.35216 9.4251C5.45216 10.5126 9.83966 7.9126 9.83966 7.9126L9.29591 3.5751V3.56885Z" fill="url(#paint0_linear_9361_23338)"/>
<path id="Vector_2" d="M0.601562 8.22519C2.13281 7.41894 3.27031 9.41894 5.54531 9.63769C7.82031 9.85644 8.10781 3.86269 9.28906 3.56894C10.4766 3.27519 15.8578 10.3627 18.4828 11.1127L18.1766 21.2189C18.1766 21.2189 8.50781 21.1252 7.04531 20.5689C5.57031 20.0127 0.601562 8.22519 0.601562 8.22519Z" fill="url(#paint1_linear_9361_23338)"/>
<path id="Vector_3" d="M35.2328 8.14414C35.2328 8.14414 34.1641 10.6941 32.8703 13.4879C32.1266 15.1004 31.3016 16.7941 30.5703 18.1191C29.8328 19.4504 29.1891 20.4191 28.7891 20.5691C27.5266 21.0504 20.2141 21.1816 18.1828 21.2129H17.9391C17.7578 21.2129 17.6578 21.2129 17.6578 21.2129L17.6078 19.4816L17.3516 11.1066C17.5266 11.0566 17.7203 10.9754 17.9203 10.8691C19.0453 10.2816 20.5016 8.91289 21.9078 7.51289C23.9516 5.48164 25.8828 3.38789 26.5391 3.55039C27.7203 3.84414 27.2703 9.98164 29.5391 9.76914C31.8141 9.55039 34.0828 7.46289 35.2328 8.13789V8.14414Z" fill="url(#paint2_linear_9361_23338)"/>
<path id="Vector_4" d="M29.1703 9.75C27.4203 8.35625 28.1141 5.875 27.8078 5.05625C27.3891 3.94375 26.5391 3.5625 26.5391 3.5625C26.5391 3.5625 27.0328 3.91875 27.4203 6.65625C27.8078 9.39375 29.1703 9.75 29.1703 9.75Z" fill="url(#paint3_linear_9361_23338)"/>
<g id="Vector_5" style="mix-blend-mode:multiply" opacity="0.5">
<path d="M32.868 13.4878C32.1243 15.1003 31.2993 16.7941 30.568 18.1191L18.2305 19.4253L17.5993 19.4878L10.9618 20.1878L4.19304 14.1628C3.47429 11.7503 7.94929 8.62533 13.968 7.57533C16.4368 7.14408 19.1618 7.06283 21.8993 7.51908C22.518 7.61908 23.1305 7.75033 23.743 7.90658C28.5243 9.15033 31.2868 11.4378 32.8618 13.4816L32.868 13.4878Z" fill="#DE376D"/>
</g>
<path id="Vector_6" d="M35.3132 8.3C35.1569 7.13125 31.6382 11.8187 29.0444 12.3625C26.4632 12.9 22.0882 2.61875 18.3194 1.3125C14.5444 2.61875 10.3257 12.9062 7.75065 12.3625C5.1569 11.8187 0.663152 7.21875 0.500652 8.3875C0.344402 9.5375 4.2569 18.0562 4.2569 18.0562C10.0382 19.3437 18.2694 19.775 18.2694 19.775C18.2694 19.775 26.5007 19.3437 32.2882 18.0562C32.2882 18.0562 35.4694 9.45625 35.3132 8.30625V8.3Z" fill="url(#paint4_linear_9361_23338)"/>
<path id="Vector_7" d="M4.26172 18.0566L4.47422 23.2066C4.47422 23.2066 9.74297 25.3441 18.2617 25.3441C26.7805 25.3441 32.4305 23.0566 32.4305 23.0566L32.2992 18.0629C32.2992 18.0629 18.668 20.6191 4.26797 18.0629L4.26172 18.0566Z" fill="url(#paint5_linear_9361_23338)"/>
<path id="Vector_8" d="M3.72391 16.8751C3.72391 16.8751 2.90516 17.2313 2.94266 17.6188C2.98641 18.0063 4.29266 19.0063 4.29266 19.0063C4.29266 19.0063 17.8114 22.5126 32.2989 18.7188C32.2989 18.7188 33.3677 17.6188 33.4614 17.1813C33.5552 16.7376 32.7739 16.6938 32.7739 16.6938C32.7739 16.6938 27.0552 19.2001 17.8989 19.2001C8.74266 19.2001 3.71766 16.8688 3.71766 16.8688L3.72391 16.8751Z" fill="url(#paint6_linear_9361_23338)"/>
<path id="Vector_9" d="M29.1703 9.75002C30.2578 10.175 33.0328 8.69377 33.6078 8.81877C34.1828 8.94377 29.8453 11.9688 28.5578 11.9188C27.2703 11.8688 26.0391 10.1313 26.0391 10.1313C26.0391 10.1313 27.2641 12.275 28.6453 12.5313C31.1641 13.0063 35.0453 8.48752 35.2328 8.14377C35.4203 7.79377 34.8078 7.81877 33.2141 8.33752C31.5391 8.88127 30.8516 9.77502 29.1766 9.75002H29.1703Z" fill="url(#paint7_linear_9361_23338)"/>
<path id="Vector_10" d="M6.2206 9.49995C5.02685 10.1375 3.39561 8.94995 2.82061 9.07495C2.23936 9.19995 6.17686 12.125 7.46436 12.0687C8.75186 12.0187 10.6331 10.2375 10.6331 10.2375C10.6331 10.2375 9.18935 12.3062 7.8081 12.5687C5.28935 13.0437 0.789355 8.57495 0.601855 8.22495C0.414355 7.87495 1.05811 7.8187 2.65811 8.33745C4.33311 8.8812 4.53936 9.66245 6.2206 9.49995Z" fill="url(#paint8_linear_9361_23338)"/>
<path id="Vector_11" d="M12.6758 7.40015C12.6758 7.40015 17.0508 1.9814 18.6883 2.3439C20.3258 2.70015 22.9695 5.91265 22.9695 5.91265C22.9695 5.9064 19.8008 1.01265 18.3445 0.906399C16.882 0.806399 12.6758 7.40015 12.6758 7.40015Z" fill="url(#paint9_linear_9361_23338)"/>
<g id="Group_3">
<path id="Vector_12" d="M14.2641 18.3877C10.7579 16.8564 16.1704 10.5064 18.1391 9.68766C20.1141 8.86891 25.8704 16.3189 23.2266 17.7127C19.9266 19.4564 14.2579 18.3877 14.2579 18.3877H14.2641Z" fill="url(#paint10_linear_9361_23338)"/>
<path id="Vector_13" d="M13.8095 16.9316C13.5283 14.4253 16.2033 10.9003 18.4908 10.5941C20.7783 10.2878 23.972 15.0878 23.5845 16.9316C23.197 18.7753 14.047 19.0128 13.8095 16.9316Z" fill="url(#paint11_linear_9361_23338)"/>
<g id="Vector_14" style="mix-blend-mode:soft-light">
<path d="M15.5463 16.5063C15.3588 15.5501 17.59 12.7438 18.6963 12.4751C19.8025 12.2063 21.74 15.0126 21.74 16.1626C21.74 17.3126 15.74 17.5063 15.5463 16.5063Z" fill="white"/>
</g>
<path id="Vector_15" opacity="0.75" d="M14 16.1254C14.2563 16.5879 15.2062 16.5504 15.5375 15.9691C15.8687 15.3941 18.5375 12.5504 18.6375 12.0879C18.7375 11.6254 18.4875 10.5879 18.4875 10.5879C18.4875 10.5879 14.8063 11.5129 14 16.1191V16.1254Z" fill="white"/>
<g id="Vector_16" style="mix-blend-mode:multiply" opacity="0.8">
<path d="M14.1903 17.5375C13.7965 17.1625 15.7028 16.725 15.7028 16.725C15.7028 16.725 17.0028 17.3 18.6403 17.2125C20.2778 17.125 21.3278 16.5188 21.6028 16.45C21.8778 16.3813 23.1403 17.0875 23.1715 17.3313C23.2028 17.5688 21.309 18.4062 18.6028 18.4062C15.8965 18.4062 14.1903 17.5375 14.1903 17.5375Z" fill="#B82774"/>
</g>
<path id="Vector_17" d="M13.7812 18.1064C13.7812 18.1064 16.3438 18.6064 18.6375 18.5314C22.3 18.4127 23.75 17.2002 23.75 17.2002C23.75 17.2002 23.4312 18.7127 18.6375 18.7939C14.5813 18.8627 13.7812 18.1064 13.7812 18.1064Z" fill="url(#paint12_linear_9361_23338)"/>
<path id="Vector_18" d="M16.1464 12.0629C16.1464 12.0629 15.9401 13.2879 16.8089 13.5129C17.6776 13.7379 18.3901 12.3191 18.5151 11.8754C18.6401 11.4316 18.4901 10.5879 18.4901 10.5879C18.4901 10.5879 16.8026 11.2441 16.1464 12.0629Z" fill="white"/>
<path id="Vector_19" d="M21.6702 15.7129C21.6077 15.6566 21.1139 16.5879 21.2389 16.5941C21.3639 16.5941 22.0389 16.5504 22.1264 16.5941C22.2139 16.6316 21.9014 15.9316 21.6764 15.7129H21.6702Z" fill="white"/>
</g>
<g id="Vector_20" style="mix-blend-mode:multiply" opacity="0.7">
<path d="M4.30078 19.0126C4.30078 19.0126 19.2008 24.4001 32.307 18.7251C32.307 18.7251 20.7258 22.4438 4.30078 19.0126Z" fill="#DE376D"/>
</g>
<g id="Vector_21" style="mix-blend-mode:soft-light">
<path d="M21.2117 19.1312C19.093 20.1687 23.2242 20.0124 26.0305 19.7687C28.8367 19.5249 30.5992 17.9562 30.643 17.6874C30.6867 17.4187 21.2117 19.1249 21.2117 19.1249V19.1312Z" fill="white"/>
</g>
<g id="Vector_22" style="mix-blend-mode:multiply" opacity="0.2">
<path d="M6.59465 19.1941C4.8259 18.6066 6.06965 17.8191 10.3509 18.7128C14.6321 19.6066 9.6009 20.1941 6.59465 19.1941Z" fill="#E02774"/>
</g>
<g id="Vector_23" style="mix-blend-mode:soft-light" opacity="0.5">
<path d="M11.7181 9.61885C10.2869 11.3376 8.48061 18.0501 11.6244 17.4188C12.7369 17.1938 14.3869 10.1188 18.0931 8.8876C21.7994 7.65635 24.9119 15.8313 26.0369 16.4313C27.1619 17.0313 28.1931 14.2563 28.1931 13.5313C28.1931 12.8063 21.0744 2.56885 18.3431 2.9251C15.6119 3.28135 16.1244 4.33135 11.7181 9.61885Z" fill="white"/>
</g>
<g id="Vector_24" style="mix-blend-mode:multiply" opacity="0.2">
<path d="M2.94922 11.1941C2.94922 10.9254 6.34297 12.7066 7.38047 14.1691C8.41172 15.6316 9.19922 17.9879 9.24297 18.2066C9.28672 18.4254 6.43672 17.9254 5.73047 17.4254C5.01797 16.9254 2.95547 11.1941 2.95547 11.1941H2.94922Z" fill="#E02774"/>
</g>
<g id="Vector_25" style="mix-blend-mode:multiply" opacity="0.2">
<path d="M6.08324 23.394C5.13324 22.9815 5.79573 20.394 5.95823 20.0878C6.12698 19.7815 13.4145 20.9128 14.5395 21.1815C15.6645 21.4503 15.8145 24.6815 15.7082 25.044C15.602 25.4003 8.30199 24.3565 6.08324 23.4003V23.394Z" fill="#E02774"/>
</g>
<g id="Vector_26" style="mix-blend-mode:soft-light">
<path d="M21.7375 25.2127C20.55 25.3189 22.5625 21.5064 22.9688 21.3252C23.375 21.1439 28.9063 19.7939 29.4313 19.9564C29.9563 20.1189 30.2063 23.7752 30.2063 23.7752C30.2063 23.7752 25.525 24.8814 21.7438 25.2127H21.7375Z" fill="white"/>
</g>
<path id="Vector_27" d="M19.0006 1.52496C18.1944 1.25621 19.4506 3.31871 20.7131 4.06246C21.9756 4.80621 20.2381 1.94371 19.0006 1.52496Z" fill="white"/>
<path id="Vector_28" d="M30.0066 12.3938C29.0503 12.4938 32.0378 10.2501 33.0253 9.75633C34.0128 9.26258 32.6191 12.1251 30.0066 12.3938Z" fill="white"/>
<path id="Vector_29" d="M26.5364 18.3063C25.7364 18.6126 27.9802 18.8876 28.9302 18.6501C29.8864 18.4188 30.0364 17.8376 30.1989 17.6813C30.3614 17.5251 26.5302 18.3063 26.5302 18.3063H26.5364Z" fill="white"/>
<g id="Vector_30" style="mix-blend-mode:soft-light">
<path d="M3.2244 17.4252C2.9619 17.7939 4.5494 18.6877 5.03065 18.7127C5.5119 18.7314 6.31815 18.2502 6.46815 18.0689C6.61815 17.8877 3.58065 16.9252 3.2244 17.4252Z" fill="white"/>
</g>
<g id="Vector_31" style="mix-blend-mode:soft-light">
<path d="M4.74353 19.3625C4.40603 19.225 4.38103 23.0687 4.83728 23.125C5.29353 23.1812 5.75603 20.5625 5.81853 20.0312C5.88103 19.5 4.74353 19.3625 4.74353 19.3625Z" fill="white"/>
</g>
<g id="Vector_32" style="mix-blend-mode:soft-light">
<path d="M1.14458 10.1064C1.16958 9.30638 4.56958 15.1376 4.83208 16.1189C5.09458 17.1001 3.98208 17.0939 3.72583 16.6939C3.46958 16.2939 1.13208 10.5876 1.14458 10.1064Z" fill="white"/>
</g>
<g id="Vector_33" style="mix-blend-mode:multiply" opacity="0.3">
<path d="M31.1948 16.9501C29.7448 17.1938 31.2886 12.7563 33.4823 10.5438C35.6761 8.33133 32.5511 16.5001 32.4261 16.6938C32.3011 16.8876 31.1948 16.9501 31.1948 16.9501Z" fill="#FF6F74"/>
</g>
<g id="Vector_34" style="mix-blend-mode:multiply" opacity="0.3">
<path d="M30.2076 19.5378C29.7826 19.8628 30.1951 23.2003 30.4264 23.4191C30.6576 23.6378 31.9701 23.0128 32.1889 22.7816C32.4076 22.5503 32.3389 19.5003 32.1889 19.1691C32.0389 18.8378 30.2076 19.5378 30.2076 19.5378Z" fill="#FF6F74"/>
</g>
<g id="Vector_35" style="mix-blend-mode:multiply" opacity="0.7">
<path d="M4.38672 21.2188C4.38672 21.2188 6.87422 25.7625 19.0367 25.1125C31.1992 24.4687 32.3242 21.3187 32.3242 21.3187L32.418 23.05C32.418 23.05 19.1055 28.1875 4.46797 23.2L4.38672 21.2188Z" fill="#DE376D"/>
</g>
<path id="Vector_36" d="M1.1445 8.33779C0.775746 8.78154 3.132 10.569 3.507 10.8378C3.882 11.1065 4.532 11.1628 4.6445 11.1628C4.757 11.1628 1.95075 8.40654 1.1445 8.33154V8.33779Z" fill="white"/>
<path id="Vector_37" d="M19.5062 18.6813C19.3562 18.3 21.9563 18.3125 21.9563 18.3125C21.9563 18.3125 20.4062 18.9625 19.5062 18.6813Z" fill="white"/>
<g id="Vector_38" style="mix-blend-mode:multiply" opacity="0.8">
<path d="M13.1202 16.844C13.1202 16.844 15.4014 10.919 18.5139 10.7065C21.6264 10.494 23.9077 16.594 23.9077 16.594C23.9202 14.5252 20.9202 9.45021 18.6952 9.17521C16.4764 8.89396 13.0014 14.819 13.1202 16.844Z" fill="#D12774"/>
</g>
<g id="Vector_39" style="mix-blend-mode:multiply" opacity="0.7">
<path d="M3.72578 16.875C3.72578 16.875 16.457 21.7313 32.782 16.6938L33.5945 14.375C33.5945 14.375 28.3508 19.0563 18.2508 18.8063C8.14453 18.5563 3.08203 15.3938 3.08203 15.3938L3.72578 16.8688V16.875Z" fill="#DE376D"/>
</g>
</g>
</g>
</g>
</g>
</g>
<defs>
<linearGradient id="paint0_linear_9361_23338" x1="8.03341" y1="9.6876" x2="8.03341" y2="3.56885" gradientUnits="userSpaceOnUse">
<stop offset="0.05" stop-color="#F33C00"/>
<stop offset="1" stop-color="#FF4F04"/>
</linearGradient>
<linearGradient id="paint1_linear_9361_23338" x1="9.54531" y1="21.2189" x2="9.54531" y2="3.56269" gradientUnits="userSpaceOnUse">
<stop offset="0.05" stop-color="#FF3F00"/>
<stop offset="1" stop-color="#FF7C04"/>
</linearGradient>
<linearGradient id="paint2_linear_9361_23338" x1="26.2891" y1="21.2191" x2="26.2891" y2="3.55664" gradientUnits="userSpaceOnUse">
<stop offset="0.05" stop-color="#FF3F00"/>
<stop offset="1" stop-color="#FF7C04"/>
</linearGradient>
<linearGradient id="paint3_linear_9361_23338" x1="27.8516" y1="9.75" x2="27.8516" y2="3.5625" gradientUnits="userSpaceOnUse">
<stop offset="0.05" stop-color="#F33C00"/>
<stop offset="1" stop-color="#FF4F04"/>
</linearGradient>
<linearGradient id="paint4_linear_9361_23338" x1="0.500652" y1="10.5438" x2="35.3194" y2="10.5438" gradientUnits="userSpaceOnUse">
<stop stop-color="#FF9600"/>
<stop offset="1" stop-color="#FFA900"/>
</linearGradient>
<linearGradient id="paint5_linear_9361_23338" x1="4.26172" y1="21.6941" x2="32.4242" y2="21.6941" gradientUnits="userSpaceOnUse">
<stop stop-color="#FF9600"/>
<stop offset="1" stop-color="#FFA900"/>
</linearGradient>
<linearGradient id="paint6_linear_9361_23338" x1="2.94891" y1="18.5876" x2="33.4739" y2="18.5876" gradientUnits="userSpaceOnUse">
<stop stop-color="#FF9600"/>
<stop offset="1" stop-color="#FFA900"/>
</linearGradient>
<linearGradient id="paint7_linear_9361_23338" x1="30.6516" y1="12.5688" x2="30.6516" y2="7.91252" gradientUnits="userSpaceOnUse">
<stop stop-color="#FFDE00"/>
<stop offset="1" stop-color="#FFE834"/>
</linearGradient>
<linearGradient id="paint8_linear_9361_23338" x1="5.60185" y1="12.6062" x2="5.60185" y2="7.9562" gradientUnits="userSpaceOnUse">
<stop stop-color="#FFDE00"/>
<stop offset="1" stop-color="#FFE834"/>
</linearGradient>
<linearGradient id="paint9_linear_9361_23338" x1="17.8195" y1="7.40015" x2="17.8195" y2="0.9064" gradientUnits="userSpaceOnUse">
<stop stop-color="#FFDE00"/>
<stop offset="1" stop-color="#FFE834"/>
</linearGradient>
<linearGradient id="paint10_linear_9361_23338" x1="18.5141" y1="18.7127" x2="18.5141" y2="9.61891" gradientUnits="userSpaceOnUse">
<stop offset="0.05" stop-color="#FF4B00"/>
<stop offset="1" stop-color="#FF7204"/>
</linearGradient>
<linearGradient id="paint11_linear_9361_23338" x1="18.7033" y1="18.4066" x2="18.7033" y2="10.5753" gradientUnits="userSpaceOnUse">
<stop stop-color="#DE0086"/>
<stop offset="1" stop-color="#FF003B"/>
</linearGradient>
<linearGradient id="paint12_linear_9361_23338" x1="13.7812" y1="18.0002" x2="23.75" y2="18.0002" gradientUnits="userSpaceOnUse">
<stop stop-color="#FFDE00"/>
<stop offset="1" stop-color="#FFE834"/>
</linearGradient>
<clipPath id="clip0_9361_23338">
<rect width="34.8187" height="24.475" fill="white" transform="translate(0.5 0.90625)"/>
</clipPath>
</defs>
</svg>
