<svg width="26" height="32" viewBox="0 0 26 32" fill="none" xmlns="http://www.w3.org/2000/svg">
<g id="Asset 262" clip-path="url(#clip0_9361_23253)">
<g id="Group">
<g id="Layer 2">
<g id="layer1">
<g id="Group_2">
<path id="Vector" d="M14.7324 31.3191C14.7324 31.3191 2.84328 29.7887 2.56931 29.2124C2.53625 29.1463 2.51735 28.9006 2.50791 28.5322C2.4465 26.1893 2.76298 18.8018 2.76298 18.8018L14.671 20.0015L14.7276 30.705V31.3191H14.7324Z" fill="url(#paint0_linear_9361_23253)"/>
<path id="Vector_2" d="M23.9425 28.2866C23.9331 28.7873 23.8905 29.1274 23.8055 29.2171C23.149 29.9162 14.7364 31.3238 14.7364 31.3238V30.7098L14.6797 20.0063L23.2954 18.7734C23.2954 18.7734 24.0134 25.7076 23.9472 28.2866H23.9425Z" fill="url(#paint1_linear_9361_23253)"/>
<path id="Vector_3" d="M15.966 21.8718C15.9282 22.193 15.881 22.4055 15.8243 22.4386C15.5267 22.6181 2.26781 21.3474 1.91827 21.1349L1.88992 21.1018C1.78128 20.9554 1.63958 20.3791 1.49787 19.6375C1.15306 17.852 0.789346 15.0604 0.82241 14.7487C0.82241 14.7062 0.968839 14.6778 1.21919 14.6731C3.56677 14.607 15.5078 16.0382 15.8243 16.3925C15.8526 16.4208 15.8763 16.4822 15.8951 16.5625C15.8999 16.5909 15.9093 16.6192 15.914 16.657C16.1077 17.597 16.1077 20.6011 15.9613 21.8718H15.966Z" fill="url(#paint2_linear_9361_23253)"/>
<path id="Vector_4" d="M24.0834 20.2565C24.0031 20.5871 23.9416 20.795 23.9039 20.828C23.6771 21.0028 15.9778 22.571 15.8266 22.4387C15.7983 22.4151 15.7747 22.212 15.7605 21.8955C15.6849 20.6721 15.6849 17.7294 15.9022 16.5674C15.9495 16.3076 16.0061 16.1376 16.077 16.0951C16.4596 15.8542 24.9336 14.3332 25.0328 14.5505C25.1131 14.7252 24.4518 18.7402 24.0928 20.2612L24.0834 20.2565Z" fill="url(#paint3_linear_9361_23253)"/>
<path id="Vector_5" d="M25.0279 14.5455C25.0279 14.8337 17.664 16.4822 15.921 16.657C15.8407 16.6617 15.7746 16.6664 15.7179 16.6711C14.5512 16.6995 2.88882 15.4005 1.06081 14.8573C0.928556 14.8195 0.848257 14.7817 0.824639 14.7534C0.649869 14.4936 2.3834 14.0449 4.66013 13.6056C4.70737 13.5961 4.74516 13.5867 4.7735 13.5819C7.82489 12.9962 11.7926 12.4247 13.4317 12.3444C16.3225 12.198 25.0138 14.248 25.0232 14.5455H25.0279Z" fill="url(#paint4_linear_9361_23253)"/>
<g id="Vector_6" style="mix-blend-mode:multiply" opacity="0.3">
<path d="M24.0831 20.2609C24.0028 20.5868 23.9414 20.7994 23.9036 20.8277C23.6769 21.0025 15.9776 22.5707 15.8264 22.4384C15.5288 22.6179 2.26521 21.3473 1.92039 21.1347C1.81175 21.0686 1.65588 20.4593 1.5 19.6421C2.66671 21.267 5.43941 21.4417 9.54887 21.8952C13.6536 22.3487 15.4911 21.9141 15.7603 21.8952C15.7839 21.8952 15.8548 21.8858 15.9681 21.8716C17.1065 21.7299 22.3921 21.0402 23.1431 20.8702C23.932 20.6954 24.0737 20.2987 24.0831 20.2561V20.2609Z" fill="#900055"/>
</g>
<g id="Vector_7" style="mix-blend-mode:multiply" opacity="0.2">
<path d="M1.50097 15.9439C2.03945 15.2779 14.382 16.78 15.0669 17.5404C15.7518 18.3009 15.6384 20.9792 15.0669 21.6924C14.4954 22.4104 3.57459 20.8327 2.50235 20.0534C1.43011 19.274 1.50097 15.9439 1.50097 15.9439Z" fill="#DA0553"/>
</g>
<g id="Vector_8" style="mix-blend-mode:multiply" opacity="0.2">
<path d="M16.6262 16.6759C15.8988 16.8129 16.0263 20.894 16.3617 21.4939C16.6924 22.0938 22.5259 21.0641 23.4659 20.5492C24.4059 20.0343 24.9018 15.3958 24.7034 15.0888C24.5051 14.7818 19.5879 16.1138 16.6262 16.6759Z" fill="#DA0553"/>
</g>
<path id="Vector_9" d="M24.7467 14.3994C25.0302 14.5506 19.0171 16.2935 15.5406 16.4589C12.0594 16.6242 0.992188 14.834 0.992188 14.834C0.992188 14.834 3.04219 15.3914 8.9702 16.1093C14.9029 16.8226 15.6918 17.0871 16.0177 17.0588C16.3389 17.0304 17.7465 16.3455 20.8357 15.7787C23.9249 15.2119 25.0349 14.8056 25.0349 14.6781C25.0349 14.5506 24.7515 14.3994 24.7515 14.3994H24.7467Z" fill="#8981FF"/>
<path id="Vector_10" d="M13.3956 12.8216C12.6115 10.8283 11.955 6.86522 10.4245 4.93331C8.89412 3.00139 4.79411 8.47594 2.81496 8.1264C0.84053 7.77214 0.287878 6.34564 1.27037 5.15059C2.25758 3.96026 3.39123 5.7552 3.15978 6.19921L3.93443 6.3173C3.93443 6.3173 3.11726 4.68768 2.1206 4.51291C1.12394 4.33814 0.538224 5.79299 0.500436 6.90301C0.462648 8.01304 2.89054 8.85855 3.49515 8.97663C4.09976 9.09945 7.34481 4.54598 9.5318 5.18838C11.7188 5.83077 11.3504 11.7871 13.3956 12.8169V12.8216Z" fill="url(#paint5_linear_9361_23253)"/>
<g id="Vector_11" style="mix-blend-mode:multiply" opacity="0.3">
<path d="M23.9423 28.2861C23.9329 28.7868 23.8904 29.1269 23.8053 29.2167C23.1488 29.9157 14.7362 31.3234 14.7362 31.3234C14.7362 31.3234 2.84709 29.7929 2.57312 29.2167C2.54006 29.1505 2.52117 28.9049 2.51172 28.5365C2.5684 29.0986 9.10575 30.1755 11.4203 30.4401C13.7395 30.7046 14.6748 30.714 14.6748 30.714C14.6748 30.714 14.6937 30.714 14.7315 30.714C15.1707 30.681 18.1466 30.4731 20.839 30.0338C23.7581 29.5615 23.9423 28.2956 23.9423 28.2956V28.2861Z" fill="#900055"/>
</g>
<g id="Vector_12" style="mix-blend-mode:multiply" opacity="0.2">
<path d="M2.66791 21.272C2.54982 21.2578 5.16192 28.1305 9.02576 29.2169C12.8896 30.2986 14.557 22.9725 14.557 22.5993C14.557 22.2261 2.66791 21.272 2.66791 21.272Z" fill="#DA0553"/>
</g>
<g id="Vector_13" style="mix-blend-mode:multiply" opacity="0.2">
<path d="M15.0402 22.4384C14.5584 22.5943 15.6779 29.4859 16.0699 30.0244C16.462 30.5629 22.5412 29.5993 23.4056 28.7018C24.27 27.8043 23.9204 21.6165 23.108 21.4229C22.2955 21.2292 15.0449 22.4384 15.0449 22.4384H15.0402Z" fill="#DA0553"/>
</g>
<path id="Vector_14" d="M15.0586 16.9355C15.4129 16.9922 15.5924 22.4621 15.8285 22.4432C16.0647 22.4243 16.0789 17.9794 16.4331 16.9355C16.4331 16.9355 15.701 17.1292 15.0586 16.9355Z" fill="#665CFF"/>
<path id="Vector_15" d="M14.7319 22.4434C14.5288 22.4151 14.5855 30.1522 14.6752 30.6009C14.765 31.0497 14.9823 24.621 14.7319 22.4434Z" fill="#5D52FF"/>
<g id="Vector_16" style="mix-blend-mode:multiply" opacity="0.5">
<path d="M2.63672 22.1363C3.46806 21.1255 12.6317 22.7929 15.2296 23.2794C17.7898 23.7612 23.5902 21.971 23.5902 21.971L23.5005 20.9507C23.5005 20.9507 17.3457 22.2733 15.7161 22.448C14.0865 22.6228 2.66978 21.2719 2.66978 21.2719L2.63672 22.1363Z" fill="#6E3B66"/>
</g>
<g id="Vector_17" style="mix-blend-mode:multiply" opacity="0.3">
<path d="M3.22266 29.4861C3.22266 29.4861 3.99259 29.1791 8.10677 29.8073C12.221 30.4309 14.1481 31.248 14.1481 31.248C14.1481 31.248 6.34018 30.2561 3.22266 29.4861Z" fill="#900055"/>
</g>
<g id="Vector_18" style="mix-blend-mode:multiply" opacity="0.3">
<path d="M14.9219 31.2432C14.9219 31.2432 18.6582 30.1332 20.113 29.8025C21.5679 29.4719 23.4809 29.4058 23.4809 29.4058C23.4809 29.4058 22.3378 29.7836 19.8249 30.3646C17.312 30.9456 14.9266 31.2385 14.9266 31.2385L14.9219 31.2432Z" fill="#900055"/>
</g>
<g id="Vector_19" style="mix-blend-mode:soft-light">
<path d="M15.2151 16.4683C14.5161 16.7422 15.5883 17.1768 16.0134 17.0587C16.4385 16.9359 17.2604 16.6619 17.3266 16.525C17.3927 16.3927 15.2151 16.4683 15.2151 16.4683Z" fill="white"/>
</g>
<path id="Vector_20" d="M10.7534 30.7802C10.7534 30.7802 10.5408 31.2053 9.94565 31.0494C9.34576 30.8935 6.55417 30.5204 6.09126 30.3928C5.62836 30.2653 5.05681 16.0617 5.10877 15.4524C5.16073 14.843 13.101 13.8464 13.4363 13.8133C13.767 13.7802 14.3669 14.2148 14.433 14.3612C14.4991 14.5077 9.94565 15.7074 9.615 16.0381C9.28436 16.3687 9.59611 30.6054 9.77088 30.6149C9.94565 30.6243 10.7581 30.7755 10.7581 30.7755L10.7534 30.7802Z" fill="url(#paint6_linear_9361_23253)"/>
<path id="Vector_21" d="M13.5855 13.8277C13.2359 13.856 13.9019 14.1867 14.431 14.3662C14.96 14.5456 20.17 15.188 20.6235 15.8163C21.077 16.4445 19.8205 30.3694 19.8205 30.3694L19.0317 30.5442C19.0317 30.5442 19.3859 30.8182 19.6694 30.8512C19.9528 30.8843 22.3618 30.2372 22.5129 30.1049C22.6641 29.9726 23.8402 15.4478 23.7599 15.0983C23.6796 14.7488 16.5518 13.5773 13.5902 13.8324L13.5855 13.8277Z" fill="url(#paint7_linear_9361_23253)"/>
<path id="Vector_22" d="M13.5321 13.0341C13.5321 13.0341 13.4659 7.16752 15.0719 4.66406C16.6779 2.15587 17.8541 4.18698 18.8649 4.4515C19.8757 4.71601 20.811 2.40622 19.6207 1.14031C18.4304 -0.125588 18.5532 1.19227 18.5532 1.19227L17.8305 0.804945C17.8305 0.804945 18.4492 -0.168099 19.6726 0.828562C20.896 1.82522 20.3812 3.93663 19.5404 4.81521C18.6996 5.69378 17.8494 3.60126 16.4134 4.69712C14.9775 5.79298 13.5699 12.9397 13.8013 13.4734C14.0328 14.0072 13.5273 13.0388 13.5273 13.0388L13.5321 13.0341Z" fill="url(#paint8_linear_9361_23253)"/>
<g id="Vector_23" style="mix-blend-mode:multiply" opacity="0.5">
<path d="M6.00467 15.3816C5.57483 15.5705 8.73958 16.0145 9.95825 15.7311C11.1816 15.4477 12.5892 15.1029 14.9227 15.0462C17.2561 14.9895 20.5295 15.7311 20.5295 15.7311C20.5295 15.7311 18.8007 14.9328 17.3269 14.6778C15.8532 14.4227 18.9943 14.1346 18.9943 14.1346L17.7284 13.9551L11.7201 14.3046C11.7201 14.3046 6.43451 14.7156 6.00467 15.3769V15.3816Z" fill="#811166"/>
</g>
<path id="Vector_24" d="M13.114 13.856C12.8494 13.8891 6.4538 13.2797 6.19873 13.3223C5.93894 13.3695 4.41797 13.6529 4.41797 13.6529C4.41797 13.6529 4.5644 13.1286 4.66359 13.0058C4.76279 12.883 7.75277 12.439 8.76833 12.3445C9.78388 12.25 15.1687 13.6246 15.1687 13.8513C15.1687 14.078 13.1187 13.8513 13.1187 13.8513L13.114 13.856Z" fill="url(#paint9_linear_9361_23253)"/>
<path id="Vector_25" d="M4.94695 10.0252C4.44154 10.2425 5.40041 14.5645 7.88026 14.914C10.3601 15.2636 13.3926 14.0827 13.4918 13.9552C13.591 13.8276 10.1287 9.86931 9.576 9.38751C9.02807 8.90571 4.94695 10.0252 4.94695 10.0252Z" fill="url(#paint10_linear_9361_23253)"/>
<path id="Vector_26" d="M20.8966 13.4073C20.8966 13.4073 21.0666 12.9208 20.8966 12.8357C20.7265 12.7507 18.001 12.4531 17.4862 12.4531C16.9713 12.4531 13.9577 13.8702 14.0286 13.9316C14.0994 13.9977 14.8127 14.0497 15.8613 13.9316C16.9099 13.8135 20.1975 13.2561 20.1975 13.2561L20.8966 13.4073Z" fill="url(#paint11_linear_9361_23253)"/>
<path id="Vector_27" d="M13.9248 14.1582C13.9154 14.1535 13.9012 14.1393 13.8871 14.1299C13.9863 14.0307 14.0335 13.9362 14.0335 13.9362C13.9154 13.5064 12.3614 10.5022 11.3789 9.0096C11.3789 9.0096 11.3789 9.0096 11.3694 9.00015C11.1049 8.59866 10.8829 8.3058 10.7412 8.21133C8.83762 6.91708 5.31388 9.15603 4.42113 10.0346C4.31721 10.1385 4.24636 10.2708 4.20857 10.4219C4.20857 10.4408 4.19913 10.4597 4.1944 10.4786C4.09049 10.984 4.29832 11.7067 4.72344 12.4483C4.91238 12.779 5.14855 13.1143 5.41779 13.4355C5.65397 13.7189 5.92321 13.9929 6.21134 14.2385C6.55616 14.5408 6.93877 14.8054 7.33554 15.0132C9.21078 15.991 12.5692 14.7439 13.6225 14.3094C13.8257 14.2244 13.9437 14.1724 13.9437 14.1724L13.9343 14.163L13.9248 14.1582ZM7.6898 14.6731C7.44418 14.607 7.19856 14.4653 6.95766 14.2669C6.76872 14.111 6.57978 13.9221 6.40028 13.7142C5.49337 12.642 4.83208 11.0313 5.10132 10.54C5.46975 9.86928 11.5064 13.2749 12.7534 14.0685C12.7581 14.0732 12.7629 14.0779 12.7723 14.0827C11.4686 14.3613 8.78566 14.9707 7.68508 14.6778L7.6898 14.6731Z" fill="url(#paint12_linear_9361_23253)"/>
<path id="Vector_28" d="M17.0906 6.88898C18.9706 6.37412 18.2809 11.5086 17.8227 12.3446C17.3646 13.1807 16.0703 13.7192 16.0703 13.7192C16.0703 13.7192 21.8094 13.3649 22.8627 11.3952C23.9161 9.42551 23.5713 7.27159 23.1839 6.40246C22.7966 5.53334 17.0906 6.89371 17.0906 6.89371V6.88898Z" fill="url(#paint13_linear_9361_23253)"/>
<path id="Vector_29" d="M23.337 5.9442C23.337 5.9442 23.2992 5.92059 23.2756 5.91114C22.5245 5.61828 18.5237 5.70803 16.861 6.75193C16.6957 6.85584 16.5493 6.96921 16.4359 7.09674C15.1842 8.46184 13.7246 13.7569 14.4379 13.8797C14.5607 13.8986 14.7685 13.9364 15.0519 13.9222C14.6646 14.1112 14.5323 14.1348 15.2598 14.2765C15.4062 14.3001 15.7038 14.2859 16.11 14.2387C16.3226 14.2151 16.5587 14.1773 16.8185 14.1301H16.8327C16.9744 14.1017 17.1256 14.0781 17.2767 14.045C17.3428 14.0309 17.409 14.0214 17.4751 14.0072C17.6971 13.96 17.9285 13.9081 18.1694 13.8561C18.3253 13.8183 18.4859 13.7805 18.6512 13.738C18.7788 13.7049 18.9016 13.6719 19.0291 13.6388C19.4401 13.5302 19.8557 13.4074 20.2478 13.2751C20.4226 13.2184 20.5973 13.157 20.7674 13.0956C20.7768 13.0909 20.791 13.0862 20.8004 13.0814C20.8666 13.0578 20.9327 13.0342 20.9941 13.0059C21.0083 13.0059 21.0225 12.9964 21.0413 12.987C21.1075 12.9633 21.1736 12.935 21.235 12.9114C21.2397 12.9114 21.2492 12.9114 21.2539 12.9067C21.372 12.8594 21.4901 12.8075 21.5987 12.7555C21.7546 12.6799 21.9057 12.6091 22.0427 12.5335C22.09 12.5099 22.1372 12.4815 22.1797 12.4579C22.2364 12.4296 22.2884 12.3965 22.3356 12.3635C22.4348 12.3021 22.5245 12.2359 22.6048 12.1745C22.6048 12.1745 22.6048 12.1745 22.6096 12.1698C22.6521 12.1367 22.6899 12.1037 22.7276 12.0706C22.7276 12.0706 22.7276 12.0706 22.7324 12.0706C22.7654 12.0375 22.7985 12.0092 22.8268 11.9761C22.8693 11.9336 22.9071 11.8864 22.9402 11.8439C22.9544 11.8203 22.9733 11.7966 22.9874 11.773C23.0063 11.74 23.0252 11.7069 23.0394 11.6691C23.2236 11.2393 23.3937 10.6063 23.5165 9.90723C23.5165 9.90723 23.5165 9.89779 23.5165 9.89306C23.5259 9.83638 23.5354 9.77498 23.5448 9.71829C23.5448 9.70885 23.5448 9.6994 23.5448 9.68523C23.559 9.59548 23.5731 9.50573 23.5873 9.41126C23.5873 9.40654 23.5873 9.39709 23.5873 9.38765C23.592 9.34513 23.5968 9.30735 23.6015 9.26956C23.6109 9.17981 23.6251 9.08534 23.6346 8.99087C23.6393 8.92002 23.6487 8.85389 23.6534 8.79248C23.6534 8.77359 23.6534 8.75942 23.6534 8.74525C23.6534 8.72635 23.6534 8.70746 23.6582 8.68857C23.6676 8.59882 23.6723 8.50907 23.6771 8.41933C23.6818 8.32958 23.6865 8.24456 23.6912 8.15953C23.6912 8.0934 23.696 8.03672 23.696 7.98004C23.696 7.86668 23.7007 7.75331 23.7007 7.64467C23.7007 6.80388 23.5826 6.13787 23.2992 5.9442H23.337ZM22.2836 11.6691C21.2539 12.6894 18.2545 13.2042 16.5068 13.5254C17.083 13.2373 17.7349 12.7508 18.4292 11.9478C20.3753 9.70412 22.1561 6.46379 22.8316 6.75193C23.5023 7.03534 23.6865 10.2851 22.2836 11.6738V11.6691Z" fill="url(#paint14_linear_9361_23253)"/>
<g id="Vector_30" style="mix-blend-mode:multiply" opacity="0.5">
<path d="M19.668 30.8467C19.668 30.8467 20.2348 30.5538 20.6363 25.7925C21.0331 21.0312 20.9244 15.859 21.0992 15.7267C21.274 15.5944 23.7538 15.0938 23.7538 15.0938C23.7538 15.0938 22.6816 29.0517 22.3604 29.7603C22.0392 30.4688 19.668 30.8467 19.668 30.8467Z" fill="#811166"/>
</g>
<g id="Vector_31" style="mix-blend-mode:multiply" opacity="0.5">
<path d="M10.0743 31.0777C10.0743 31.0777 9.55467 31.1202 9.41768 30.3267C9.2807 29.5331 8.8981 16.7844 9.10121 16.2175C9.30432 15.6507 13.4327 14.7485 13.4327 14.7485C13.4327 14.7485 9.97033 15.8349 9.69637 16.2695C9.42241 16.7041 9.45547 21.9188 9.48854 21.9991C9.5216 22.0794 9.93727 22.0653 9.93727 22.0653C9.93727 22.0653 10.112 30.5865 10.1734 30.681C10.2349 30.7754 10.7639 30.7849 10.7639 30.7849C10.7639 30.7849 10.471 31.158 10.0837 31.0777H10.0743Z" fill="#811166"/>
</g>
<g id="Vector_32" style="mix-blend-mode:multiply" opacity="0.3">
<path d="M5.56529 15.9486C5.31494 15.9958 5.44248 21.2956 5.96206 23.1567C6.48165 25.0177 8.53165 26.8079 8.88592 26.8504C9.24018 26.8977 8.93315 17.1389 8.88592 16.7563C8.83868 16.3737 5.56529 15.9438 5.56529 15.9438V15.9486Z" fill="#912774"/>
</g>
<g id="Vector_33" style="mix-blend-mode:multiply" opacity="0.5">
<path d="M20.6272 15.8162C20.8256 16.0855 20.5422 20.9649 20.1123 21.6734C20.1123 21.6734 19.6825 29.9915 19.418 30.4497L19.8242 30.3647C19.8242 30.3647 21.024 17.9466 20.6272 15.8115V15.8162Z" fill="#811166"/>
</g>
<path id="Vector_34" d="M5.1757 15.5802C5.23711 15.1834 6.80059 15.7361 7.85866 15.7738C8.91673 15.8116 9.03954 15.8022 9.05371 15.9722C9.06788 16.1423 8.86005 16.421 7.57525 16.284C6.29045 16.147 5.0954 15.8541 5.1757 15.5802Z" fill="#FF4F90"/>
<path id="Vector_35" d="M20.7089 15.5519C20.6049 15.5896 21.356 15.7455 22.2251 15.4905C23.0942 15.2354 23.5666 15.1882 23.5949 15.0984C23.6233 15.0039 21.2143 15.3676 20.7089 15.5519Z" fill="#FF4F90"/>
<g id="Vector_36" style="mix-blend-mode:multiply" opacity="0.5">
<path d="M13.923 14.1582C13.923 14.1582 13.8852 14.1346 13.8616 14.1251C13.7907 14.0874 13.7104 14.0354 13.6065 13.9834C11.8966 13.0246 6.04418 9.98735 4.50431 10.266C4.3626 10.2897 4.26341 10.3416 4.202 10.4219C4.19256 10.4361 4.18311 10.4503 4.17366 10.4644C4.06975 10.9887 4.29175 11.7445 4.74993 12.5097C4.74993 12.5192 4.75466 12.5239 4.75466 12.5239C4.93887 12.8309 5.16088 13.1379 5.41122 13.4355C5.6474 13.7189 5.91664 13.9929 6.20477 14.2385C6.54959 14.5314 6.92275 14.7959 7.3148 14.999C9.19004 15.9768 12.5485 14.7298 13.6018 14.2952C13.8049 14.2102 13.923 14.1582 13.923 14.1582ZM6.40316 13.7189C5.4868 12.6467 4.82079 11.0265 5.09003 10.5306C5.46318 9.85509 11.5565 13.3033 12.761 14.0685C11.4573 14.3472 8.77909 14.9565 7.67851 14.6636C7.43761 14.5975 7.19671 14.4605 6.96054 14.2716C6.7716 14.1157 6.58266 13.9268 6.40316 13.7189Z" fill="#811166"/>
</g>
<g id="Vector_37" style="mix-blend-mode:multiply" opacity="0.5">
<path d="M23.3398 5.9439C22.9761 5.85888 22.636 5.92973 22.3053 6.11395C20.8269 6.94528 19.6035 10.0628 18.0495 11.6688C17.0433 12.708 16.4954 13.2795 16.2026 13.5818C16.1553 13.6338 16.1128 13.6763 16.075 13.7141C15.905 13.8936 15.8672 13.9314 15.8672 13.9314L16.1081 14.2384C16.3206 14.2148 16.5568 14.177 16.8166 14.1298H16.8308C16.9725 14.1014 17.1236 14.0778 17.2748 14.0447C17.3409 14.0306 17.4071 14.0211 17.4732 14.0069C17.6952 13.9597 17.9266 13.9077 18.1675 13.8558C18.3234 13.818 18.484 13.7802 18.6493 13.7377C18.7769 13.7046 18.8997 13.6716 19.0272 13.6385C19.4382 13.5299 19.8538 13.4071 20.2459 13.2748C20.4207 13.2181 20.5954 13.1567 20.7655 13.0953C20.7749 13.0906 20.7891 13.0859 20.7985 13.0811C20.8647 13.0575 20.9308 13.0339 20.9922 13.0056C21.0064 13.0056 21.0205 12.9961 21.0394 12.9867C21.1056 12.963 21.1717 12.9347 21.2331 12.9111C21.2378 12.9111 21.2473 12.9111 21.252 12.9064C21.3701 12.8591 21.4882 12.8072 21.5968 12.7552C21.7527 12.6796 21.9038 12.6088 22.0408 12.5332C22.0881 12.5096 22.1353 12.4812 22.1778 12.4576C22.2345 12.4293 22.2864 12.3962 22.3337 12.3632C22.4329 12.3018 22.5226 12.2356 22.6029 12.1742C22.6029 12.1742 22.6029 12.1742 22.6076 12.1695C22.6502 12.1364 22.6879 12.1034 22.7257 12.0703C22.7257 12.0703 22.7257 12.0703 22.7305 12.0703C22.7635 12.0372 22.7966 12.0089 22.8249 11.9758C22.8674 11.9333 22.9052 11.8861 22.9383 11.8436C22.9525 11.82 22.9714 11.7963 22.9855 11.7727C23.0044 11.7397 23.0233 11.7066 23.0375 11.6688C23.2217 11.239 23.3917 10.606 23.5146 9.90693C23.5146 9.90693 23.5146 9.89748 23.5146 9.89276C23.524 9.83608 23.5335 9.77467 23.5429 9.71799C23.5429 9.70854 23.5429 9.69909 23.5429 9.68492C23.5571 9.59518 23.5712 9.50543 23.5854 9.41096C23.5854 9.40624 23.5854 9.39679 23.5854 9.38734C23.5901 9.34483 23.5949 9.30704 23.5996 9.26925C23.609 9.17951 23.6232 9.08504 23.6326 8.99057C23.6374 8.91971 23.6468 8.85359 23.6515 8.79218C23.6515 8.77329 23.6515 8.75911 23.6515 8.74494C23.6515 8.72605 23.6515 8.70716 23.6563 8.68826C23.6657 8.59852 23.6704 8.50877 23.6752 8.41902C23.6799 8.32928 23.6846 8.24425 23.6893 8.15923C23.6893 8.0931 23.6941 8.03642 23.6941 7.97974C23.6941 7.86637 23.6988 7.75301 23.6988 7.64437C23.6988 6.80358 23.5807 6.13756 23.2973 5.9439H23.3398ZM22.2864 11.6688C21.2567 12.6891 18.2573 13.2039 16.5096 13.5251C17.0859 13.237 17.7377 12.7505 18.4321 11.9475C20.3781 9.70382 22.1589 6.46349 22.8344 6.75162C23.5051 7.03503 23.6893 10.2848 22.2864 11.6735V11.6688Z" fill="#811166"/>
</g>
<g id="Vector_38" style="mix-blend-mode:multiply" opacity="0.3">
<path d="M14.6759 13.0389C14.6759 13.0389 14.6381 10.4031 15.8615 8.98609C17.0896 7.56431 15.5309 11.7966 15.4553 12.3445C15.3797 12.8924 17.7604 8.60349 18.9932 8.02249C20.2213 7.4415 18.0532 11.3148 17.3258 12.1272C16.6031 12.9397 15.3608 13.379 15.3608 13.379L14.6759 13.0389Z" fill="#912774"/>
</g>
<g id="Vector_39" style="mix-blend-mode:multiply" opacity="0.3">
<path d="M13.8069 13.4688C13.8069 13.4688 11.6246 10.611 10.8311 10.2568C10.0375 9.9025 9.42349 10.7291 10.5855 11.8628C11.7475 12.9964 13.8069 13.4688 13.8069 13.4688Z" fill="#912774"/>
</g>
<path id="Vector_40" d="M12.9203 14.3993C12.5471 15.0228 15.8158 14.763 16.0708 14.489L16.3306 14.2103C16.3306 14.2103 15.4001 13.2231 14.6774 13.0389C13.9547 12.8547 13.5721 13.0389 13.5721 13.0389C13.5721 13.0389 14.0539 13.653 13.8414 14.1725C13.6335 14.6874 12.9203 14.3993 12.9203 14.3993Z" fill="url(#paint15_linear_9361_23253)"/>
<g id="Vector_41" style="mix-blend-mode:multiply" opacity="0.5">
<path d="M18.7762 11.5415C18.4361 12.3019 22.9234 11.1022 23.1218 9.56703C23.3202 8.02717 23.2446 6.83212 22.6353 6.90769C22.026 6.98327 20.3869 9.49618 19.8012 10.2567C19.2155 11.0172 18.7762 11.5415 18.7762 11.5415Z" fill="#9D1166"/>
</g>
<g id="Vector_42" style="mix-blend-mode:multiply" opacity="0.5">
<path d="M5.18005 10.4788C4.82106 10.5591 5.23673 12.6469 6.37982 13.3129C7.52764 13.9789 11.0514 13.6577 11.2828 13.3129C11.5143 12.9681 6.00667 10.2898 5.18005 10.4788Z" fill="#9D1166"/>
</g>
<g id="Vector_43" style="mix-blend-mode:multiply" opacity="0.5">
<path d="M12.918 14.5692C13.1872 14.8243 14.165 14.4511 15.0955 14.1394C16.026 13.8276 16.3283 14.2102 16.3283 14.2102C16.3283 14.2102 16.163 14.5834 15.8607 14.6543C15.5584 14.7251 14.0705 14.881 13.6218 14.8574C13.1683 14.8338 12.918 14.5692 12.918 14.5692Z" fill="#811166"/>
</g>
<g id="Vector_44" style="mix-blend-mode:soft-light">
<path d="M16.7206 7.09665C15.79 8.08858 18.4588 7.26669 19.6539 7.44146C20.8489 7.61623 21.959 6.16611 22.2046 5.97717C22.4502 5.78823 17.7267 5.95828 16.7206 7.10137V7.09665Z" fill="white"/>
</g>
<g id="Vector_45" style="mix-blend-mode:soft-light">
<path d="M5.48311 9.65657C5.35558 9.95415 7.10328 9.99194 9.6398 9.77938C12.1763 9.56682 10.9057 8.39067 10.0507 8.14505C9.19579 7.89942 5.86099 8.77327 5.48311 9.65657Z" fill="white"/>
</g>
<path id="Vector_46" d="M2.51915 28.7588L2.66558 21.4043C2.66558 21.4043 2.35855 25.3484 2.51915 28.7588Z" fill="#8981FF"/>
<path id="Vector_47" d="M1.45799 14.9567C1.25016 14.6355 3.46549 13.8467 3.46549 13.8467C3.46549 13.8467 0.815595 14.4702 0.820319 14.7489C0.829766 15.0276 1.45327 14.952 1.45327 14.952L1.45799 14.9567Z" fill="#8981FF"/>
<path id="Vector_48" d="M6.96383 10.4551C6.69459 10.4551 10.2231 12.2784 11.2339 12.7696C12.2447 13.2608 12.8399 13.6198 12.8399 13.6198C12.8399 13.6198 7.92743 10.4645 6.96383 10.4551Z" fill="#FF4F90"/>
<path id="Vector_49" d="M17.5 12.2312C17.5 12.2312 20.353 8.17845 21.156 7.20068C21.156 7.20068 19.243 10.6488 17.5 12.2312Z" fill="#FF4F90"/>
<g id="Vector_50" style="mix-blend-mode:multiply" opacity="0.5">
<path d="M15.125 13.2278C15.125 13.2278 16.3012 11.1022 16.7641 10.5638C17.227 10.0253 17.1467 11.5037 16.8491 12.2312C16.5515 12.9586 15.3139 13.3412 15.2478 13.3034C15.1817 13.2656 15.125 13.2278 15.125 13.2278Z" fill="#9D1166"/>
</g>
<g id="Vector_51" style="mix-blend-mode:multiply" opacity="0.5">
<path d="M13.808 13.4027C13.808 13.4027 12.7736 12.1415 12.2729 11.5935C11.7722 11.0503 11.7911 11.9147 12.0084 12.4957C12.2256 13.0767 13.808 13.3979 13.808 13.3979V13.4027Z" fill="#9D1166"/>
</g>
<g id="Vector_52" style="mix-blend-mode:multiply" opacity="0.3">
<path d="M14.7411 13.0577C14.6372 12.7696 14.7836 11.3809 15.0103 10.9983C15.2418 10.6157 15.341 12.2453 15.2796 12.557C15.2182 12.8688 14.7411 13.0577 14.7411 13.0577Z" fill="#9D1166"/>
</g>
<path id="Vector_53" d="M21.3625 6.31267C21.8962 6.05288 21.542 7.05899 20.9846 7.20069C20.4272 7.3424 19.8982 6.78502 18.8259 6.83226C17.7584 6.87949 18.0891 7.20069 17.0877 7.38019C16.0816 7.5644 16.1855 7.49827 16.4311 7.09677C16.6767 6.69528 17.1066 7.08733 17.7112 6.95035C18.3205 6.81336 18.1174 6.7 19.3597 6.78975C20.602 6.87949 21.3672 6.31267 21.3672 6.31267H21.3625Z" fill="#FF5CA2"/>
<path id="Vector_54" d="M5.47297 9.88835C5.48242 10.0726 5.91226 10.1718 6.86168 10.0253C7.81111 9.8789 8.16065 9.56243 8.90697 9.13259C9.85639 8.58938 10.5696 8.90113 10.7208 8.48546C10.8719 8.07452 10.5649 8.31542 10.3949 8.42878C10.2248 8.54214 10.2673 8.48546 8.80305 9.00033C7.33876 9.51519 5.44463 9.42544 5.47297 9.88362V9.88835Z" fill="#FF5CA2"/>
<g id="Vector_55" style="mix-blend-mode:multiply" opacity="0.5">
<path d="M15.5836 3.99339C16.0229 3.62495 16.5047 4.31459 16.5519 4.44212C16.5991 4.56966 15.9898 5.00894 15.3805 6.14259C14.7711 7.27623 14.3555 6.44017 14.3555 6.44017C14.3555 6.44017 15.1065 4.38544 15.5883 3.99339H15.5836Z" fill="#D42F55"/>
</g>
<g id="Vector_56" style="mix-blend-mode:multiply" opacity="0.5">
<path d="M10.1871 4.87191C9.88952 4.98528 10.7492 6.39288 10.9145 6.85106C11.0798 7.31397 11.5569 7.53597 11.5569 7.53597C11.5569 7.53597 11.0043 5.35843 10.1871 4.86719V4.87191Z" fill="#D42F55"/>
</g>
<path id="Vector_57" d="M16.3239 3.48339C16.0499 3.6865 16.664 4.28166 16.7348 4.29584C16.8057 4.31473 17.5473 4.25805 17.5473 4.25805C17.5473 4.25805 17.2119 3.77152 17.023 3.59675C16.834 3.42671 16.3239 3.47867 16.3239 3.47867V3.48339Z" fill="#FFF455"/>
<path id="Vector_58" d="M17.911 0.72445C17.9913 0.625256 18.5392 0.346569 18.7376 0.384357C18.936 0.422145 18.9265 0.488274 18.9265 0.488274C18.9265 0.488274 18.5439 0.851985 18.5439 1.02203C18.5439 1.19208 17.9062 0.729174 17.9062 0.729174L17.911 0.72445Z" fill="#FFF455"/>
<path id="Vector_59" d="M9.88794 4.60241C9.72734 4.52211 9.43448 4.9425 9.54312 5.05114C9.65176 5.15506 10.2375 5.41013 10.2375 5.41013C10.2375 5.41013 10.4311 4.99919 10.3508 4.83859C10.2705 4.67799 9.88794 4.60241 9.88794 4.60241Z" fill="#FFF455"/>
<path id="Vector_60" d="M3.06982 5.23101C2.94228 5.19795 3.24931 5.96788 3.30127 6.05291C3.35323 6.13793 3.76417 6.14738 3.76417 6.14738C3.76417 6.14738 3.40519 5.33966 3.06509 5.23101H3.06982Z" fill="#FFF455"/>
<path id="Vector_61" d="M0.550781 7.21021C0.635805 7.00237 1.61357 7.78175 1.80724 7.98486C2.0009 8.18798 1.58051 8.22104 1.48131 8.15491C1.38212 8.08878 0.593293 7.6306 0.550781 7.21021Z" fill="#FFF455"/>
<g id="Vector_62" style="mix-blend-mode:multiply" opacity="0.5">
<path d="M1.68285 8.27259C1.64506 8.18757 1.95681 8.13561 2.03711 8.12616C2.12214 8.11672 3.33608 8.46626 3.5014 8.60324C3.66673 8.74022 3.59115 8.91027 3.47306 8.90082C3.35025 8.8961 2.56615 8.76384 1.68285 8.26787V8.27259Z" fill="#D42F55"/>
</g>
<path id="Vector_63" d="M9.07326 20.6911C8.53005 20.3746 8.43086 21.3665 8.68121 22.0325C8.93155 22.6986 9.21969 22.2687 9.21969 21.6783C9.21969 21.0878 9.18662 20.7619 9.07326 20.6958V20.6911Z" fill="#920066"/>
<path id="Vector_64" d="M21.1104 26.8553C21.5874 26.1468 22.3621 26.7656 21.715 27.4836C21.0631 28.2015 20.6663 27.5166 21.1104 26.8553Z" fill="#920066"/>
<g id="Vector_65" style="mix-blend-mode:multiply" opacity="0.5">
<path d="M21.1092 26.8552C20.8258 27.1717 21.232 27.6818 21.7138 27.2662C22.1956 26.8552 21.7044 26.1798 21.1092 26.8552Z" fill="#9A1166"/>
</g>
<g id="Vector_66" style="mix-blend-mode:multiply" opacity="0.5">
<path d="M8.51763 21.2387C8.58376 21.6591 8.90968 22.0181 9.05611 21.9709C9.20254 21.9236 9.36786 20.8042 9.07028 20.6247C8.7727 20.4499 8.44678 20.7806 8.51763 21.234V21.2387Z" fill="#9A1166"/>
</g>
<path id="Vector_67" d="M8.58675 21.6831C8.58675 21.6831 8.71429 22.2405 8.93629 22.2877C9.16302 22.3349 9.20553 21.8768 9.20553 21.8768C9.20553 21.8768 9.17247 22.4861 8.96464 22.5097C8.7568 22.5333 8.58203 21.6878 8.58203 21.6878L8.58675 21.6831Z" fill="#FF4F90"/>
<path id="Vector_68" d="M20.9199 27.3651C20.9624 27.8847 21.7087 27.4784 21.7087 27.4784C21.7087 27.4784 21.4773 27.8516 21.1561 27.8658C20.8349 27.8799 20.9152 27.3604 20.9152 27.3604L20.9199 27.3651Z" fill="#FF4F90"/>
<g id="Vector_69" style="mix-blend-mode:multiply" opacity="0.3">
<path d="M6.24708 30.4306C5.99201 30.1803 6.45963 29.2072 7.67358 29.3253C8.88752 29.4434 9.54409 30.9691 9.54409 30.9691L6.24708 30.4306Z" fill="#912774"/>
</g>
<g id="Vector_70" style="mix-blend-mode:multiply" opacity="0.3">
<path d="M21.2463 16.0242C21.0668 16.3501 20.9581 17.9041 21.5675 18.7118C22.1768 19.5196 23.5372 16.3737 23.4899 15.7266C23.4427 15.0795 21.2463 16.0242 21.2463 16.0242Z" fill="#811166"/>
</g>
<g id="Vector_71" style="mix-blend-mode:multiply" opacity="0.2">
<path d="M14.2454 16.9358C12.9937 16.5154 14.4343 19.0189 15.0578 19.9494C15.6814 20.88 15.3035 17.4129 15.1807 17.172C15.0578 16.9311 14.2454 16.9311 14.2454 16.9311V16.9358Z" fill="#DA0553"/>
</g>
<g id="Vector_72" style="mix-blend-mode:multiply" opacity="0.5">
<path d="M23.6025 9.3877C23.4749 10.2757 23.2765 11.1354 23.0404 11.6692C22.568 12.7697 18.9923 13.7569 16.8242 14.1301C17.0935 14.064 21.4438 13.0295 22.483 12.0848C23.1868 11.4424 23.4844 10.1812 23.6025 9.3877Z" fill="#9D1166"/>
</g>
<g id="Vector_73" style="mix-blend-mode:multiply" opacity="0.5">
<path d="M23.6883 8.6932C23.6883 8.6932 23.6883 8.73099 23.6836 8.74988C23.6836 8.71209 23.6836 8.68848 23.6836 8.68848L23.6883 8.6932Z" fill="#9D1166"/>
</g>
<g id="Vector_74" style="mix-blend-mode:multiply" opacity="0.5">
<path d="M1.92049 21.1395L1.89215 21.1064C1.78351 20.96 1.64181 20.3837 1.5001 19.6421C1.15529 17.8566 0.791574 15.065 0.824639 14.7533C0.649869 14.4935 2.3834 14.0448 4.66013 13.6055C4.05552 13.7377 1.84964 14.229 1.22141 14.673C1.13167 14.7344 1.07499 14.7958 1.06081 14.8525C0.895492 15.4051 1.65125 20.8088 1.92522 21.1348L1.92049 21.1395Z" fill="#6E3B66"/>
</g>
<g id="Vector_75" style="mix-blend-mode:multiply" opacity="0.5">
<path d="M23.7358 7.64448C23.7358 7.75312 23.7358 7.86649 23.7311 7.97985C23.7311 8.03653 23.7311 8.09794 23.7264 8.15462C23.7264 8.24909 23.7169 8.33411 23.7122 8.42386C23.7122 8.51361 23.7028 8.60335 23.6933 8.6931C23.6933 8.71199 23.6933 8.73089 23.6886 8.74978C23.6886 8.76395 23.6886 8.77812 23.6886 8.79702C23.6839 8.86315 23.6744 8.92928 23.6697 8.9954C23.6602 9.08988 23.6461 9.18435 23.6366 9.27409C23.6366 9.31188 23.6272 9.34967 23.6225 9.39218C23.6225 9.3969 23.6225 9.40635 23.6225 9.4158C23.6083 9.51027 23.5941 9.60001 23.5799 9.68976C23.5799 9.69921 23.5799 9.71338 23.5799 9.72283C23.5705 9.77951 23.561 9.84091 23.5516 9.8976C23.5799 9.6567 23.9011 6.80369 22.3282 6.11878C22.2007 6.0621 22.059 6.01959 21.9031 5.99597C19.7681 5.65588 16.8867 6.75646 16.8867 6.75646C18.5494 5.71256 22.5502 5.61809 23.3013 5.91567C23.3249 5.9204 23.3438 5.93457 23.3627 5.94401C23.6461 6.13768 23.7642 6.80842 23.7642 7.64448H23.7358Z" fill="#9D1166"/>
</g>
<g id="Vector_76" style="mix-blend-mode:multiply" opacity="0.5">
<path d="M11.3634 8.99543C11.2689 8.87734 10.4848 7.90902 9.45978 7.96098C8.37337 8.01294 5.15666 9.18437 4.57094 10.1385C4.54733 10.1763 4.52371 10.2188 4.50481 10.2613C4.11276 11.0738 4.57567 12.1602 4.71737 12.4483C4.73154 12.4767 4.74099 12.4956 4.74571 12.5097C4.29226 11.7445 4.06553 10.9888 4.16945 10.4644C4.17889 10.4503 4.18834 10.4361 4.19779 10.4219C4.23557 10.2708 4.30643 10.1338 4.41034 10.0346C5.30309 9.15603 8.82683 6.91708 10.7304 8.21133C10.8721 8.3058 11.0941 8.59866 11.3586 9.00015L11.3634 8.99543Z" fill="#9D1166"/>
</g>
</g>
</g>
</g>
</g>
</g>
<defs>
<linearGradient id="paint0_linear_9361_23253" x1="11.6243" y1="31.7253" x2="4.64293" y2="15.1741" gradientUnits="userSpaceOnUse">
<stop stop-color="#512EFF"/>
<stop offset="1" stop-color="#6B2ED8"/>
</linearGradient>
<linearGradient id="paint1_linear_9361_23253" x1="14.675" y1="25.0463" x2="23.9472" y2="25.0463" gradientUnits="userSpaceOnUse">
<stop stop-color="#3D069A"/>
<stop offset="1" stop-color="#6509BA"/>
</linearGradient>
<linearGradient id="paint2_linear_9361_23253" x1="13.9207" y1="30.752" x2="6.94409" y2="14.2055" gradientUnits="userSpaceOnUse">
<stop stop-color="#512EFF"/>
<stop offset="1" stop-color="#6B2ED8"/>
</linearGradient>
<linearGradient id="paint3_linear_9361_23253" x1="15.7133" y1="18.4899" x2="25.0328" y2="18.4899" gradientUnits="userSpaceOnUse">
<stop stop-color="#3D069A"/>
<stop offset="1" stop-color="#6509BA"/>
</linearGradient>
<linearGradient id="paint4_linear_9361_23253" x1="0.810468" y1="14.5078" x2="25.0279" y2="14.5078" gradientUnits="userSpaceOnUse">
<stop offset="0.04" stop-color="#9190FF"/>
<stop offset="1" stop-color="#6B59FF"/>
</linearGradient>
<linearGradient id="paint5_linear_9361_23253" x1="6.66553" y1="11.9582" x2="7.65582" y2="4.26113" gradientUnits="userSpaceOnUse">
<stop stop-color="#FFAC15"/>
<stop offset="0.63" stop-color="#FF8100"/>
<stop offset="0.7" stop-color="#FFA400"/>
<stop offset="1" stop-color="#FFBA00"/>
</linearGradient>
<linearGradient id="paint6_linear_9361_23253" x1="9.76616" y1="31.0872" x2="9.76616" y2="13.8133" gradientUnits="userSpaceOnUse">
<stop stop-color="#DE0086"/>
<stop offset="1" stop-color="#FF003B"/>
</linearGradient>
<linearGradient id="paint7_linear_9361_23253" x1="18.6255" y1="30.8512" x2="18.6255" y2="13.7946" gradientUnits="userSpaceOnUse">
<stop stop-color="#DE0086"/>
<stop offset="1" stop-color="#FF003B"/>
</linearGradient>
<linearGradient id="paint8_linear_9361_23253" x1="13.4185" y1="13.4238" x2="19.2491" y2="0.538277" gradientUnits="userSpaceOnUse">
<stop stop-color="#FFAC15"/>
<stop offset="0.63" stop-color="#FF8100"/>
<stop offset="0.7" stop-color="#FFA400"/>
<stop offset="1" stop-color="#FFBA00"/>
</linearGradient>
<linearGradient id="paint9_linear_9361_23253" x1="9.79333" y1="13.9552" x2="9.79333" y2="12.3445" gradientUnits="userSpaceOnUse">
<stop stop-color="#DE0086"/>
<stop offset="1" stop-color="#FF003B"/>
</linearGradient>
<linearGradient id="paint10_linear_9361_23253" x1="9.15561" y1="14.9849" x2="9.15561" y2="9.26943" gradientUnits="userSpaceOnUse">
<stop stop-color="#DE0057"/>
<stop offset="1" stop-color="#83003B"/>
</linearGradient>
<linearGradient id="paint11_linear_9361_23253" x1="17.5004" y1="14.0024" x2="17.5004" y2="12.4531" gradientUnits="userSpaceOnUse">
<stop stop-color="#DE0086"/>
<stop offset="1" stop-color="#FF003B"/>
</linearGradient>
<linearGradient id="paint12_linear_9361_23253" x1="9.09741" y1="15.3769" x2="9.09741" y2="7.81455" gradientUnits="userSpaceOnUse">
<stop stop-color="#DE0086"/>
<stop offset="1" stop-color="#FF003B"/>
</linearGradient>
<linearGradient id="paint13_linear_9361_23253" x1="19.8208" y1="13.7145" x2="19.8208" y2="6.10488" gradientUnits="userSpaceOnUse">
<stop stop-color="#DE0057"/>
<stop offset="1" stop-color="#83003B"/>
</linearGradient>
<linearGradient id="paint14_linear_9361_23253" x1="18.9913" y1="14.2907" x2="18.9913" y2="5.76471" gradientUnits="userSpaceOnUse">
<stop stop-color="#DE0086"/>
<stop offset="1" stop-color="#FF003B"/>
</linearGradient>
<linearGradient id="paint15_linear_9361_23253" x1="14.6113" y1="14.7819" x2="14.6113" y2="12.9586" gradientUnits="userSpaceOnUse">
<stop stop-color="#FF0086"/>
<stop offset="0.99" stop-color="#FF4A77"/>
</linearGradient>
<clipPath id="clip0_9361_23253">
<rect width="24.5339" height="30.9437" fill="white" transform="translate(0.5 0.375)"/>
</clipPath>
</defs>
</svg>
