<svg width="16" height="17" viewBox="0 0 16 17" fill="none" xmlns="http://www.w3.org/2000/svg">
<path opacity="0.4" d="M7.99992 14.9834C11.6818 14.9834 14.6666 11.9986 14.6666 8.31674C14.6666 4.63484 11.6818 1.65007 7.99992 1.65007C4.31802 1.65007 1.33325 4.63484 1.33325 8.31674C1.33325 11.9986 4.31802 14.9834 7.99992 14.9834Z" fill="#B1B3C3"/>
<path d="M10.4733 10.9367C10.3867 10.9367 10.3 10.9167 10.22 10.8634L8.15334 9.63008C7.64001 9.32341 7.26001 8.65008 7.26001 8.05674V5.32341C7.26001 5.05008 7.48668 4.82341 7.76001 4.82341C8.03334 4.82341 8.26001 5.05008 8.26001 5.32341V8.05674C8.26001 8.29674 8.46001 8.65008 8.66668 8.77008L10.7333 10.0034C10.9733 10.1434 11.0467 10.4501 10.9067 10.6901C10.8067 10.8501 10.64 10.9367 10.4733 10.9367Z" fill="#B1B3C3"/>
</svg>
