<svg width="17" height="16" viewBox="0 0 17 16" fill="none" xmlns="http://www.w3.org/2000/svg">
<path d="M11.1667 8.60001V11.4C11.1667 13.7333 10.2334 14.6667 7.90004 14.6667H5.10004C2.76671 14.6667 1.83337 13.7333 1.83337 11.4V8.60001C1.83337 6.26668 2.76671 5.33334 5.10004 5.33334H7.90004C10.2334 5.33334 11.1667 6.26668 11.1667 8.60001Z" fill="#B1B3C3"/>
<path opacity="0.4" d="M11.9 1.33334H9.09997C6.79997 1.33334 5.86663 2.24668 5.83997 4.50001H7.89997C10.7 4.50001 12 5.80001 12 8.60001V10.66C14.2533 10.6333 15.1666 9.70001 15.1666 7.40001V4.60001C15.1666 2.26668 14.2333 1.33334 11.9 1.33334Z" fill="#B1B3C3"/>
</svg>
