<svg width="25" height="24" viewBox="0 0 25 24" fill="none" xmlns="http://www.w3.org/2000/svg">
<path opacity="0.4" d="M12.333 22C17.8559 22 22.333 17.5228 22.333 12C22.333 6.47715 17.8559 2 12.333 2C6.81016 2 2.33301 6.47715 2.33301 12C2.33301 17.5228 6.81016 22 12.333 22Z" fill="#0BBC78"/>
<path d="M10.9129 15.58C10.7129 15.58 10.5229 15.5 10.3829 15.36L7.55295 12.53C7.26295 12.24 7.26295 11.76 7.55295 11.47C7.84295 11.18 8.32295 11.18 8.61295 11.47L10.9129 13.77L16.0529 8.63C16.3429 8.34 16.823 8.34 17.113 8.63C17.403 8.92 17.403 9.4 17.113 9.69L11.4429 15.36C11.3029 15.5 11.1129 15.58 10.9129 15.58Z" fill="#0BBC78"/>
</svg>
