<svg width="87" height="31" viewBox="0 0 87 31" fill="none" xmlns="http://www.w3.org/2000/svg">
<path d="M1.04115 26.3073H1.68714L1.08216 28.8309C0.989877 29.2017 1.01038 29.4901 1.13343 29.6755C1.25648 29.8609 1.48206 29.9536 1.82044 29.9536C2.14857 29.9536 2.42542 29.8609 2.64076 29.6755C2.85609 29.4901 2.99964 29.2017 3.09193 28.8309L3.69691 26.3073H4.35316L3.73792 28.8927C3.60462 29.4489 3.36878 29.8712 3.02015 30.1494C2.68177 30.4275 2.2306 30.5717 1.67689 30.5717C1.12318 30.5717 0.743783 30.4378 0.538705 30.1597C0.333627 29.8815 0.292611 29.4592 0.425912 28.903L1.04115 26.3073ZM4.26087 30.4584L5.28626 26.1425L7.23451 28.6764C7.28578 28.7485 7.33704 28.8206 7.38831 28.903C7.43958 28.9854 7.49085 29.0781 7.55238 29.1811L8.23939 26.3073H8.84437L7.81898 30.6129L5.82972 28.0275L5.67591 27.8112C5.62464 27.7288 5.58363 27.6566 5.55287 27.5639L4.86585 30.4481H4.26087V30.4584ZM8.7931 30.4584L9.77747 26.3073H10.4337L9.44935 30.4584H8.7931ZM10.3825 30.4584L11.3668 26.3073H13.6124L13.4791 26.8841H11.8898L11.6437 27.9142H13.233L13.0895 28.5013H11.5001L11.0387 30.4481H10.3825V30.4584ZM13.3561 30.4584L14.3405 26.3073H14.9967L14.0123 30.4584H13.3561ZM14.9454 30.4584L15.9298 26.3073H18.1754L18.0421 26.8841H16.4528L16.2067 27.9245H17.796L17.6525 28.5116H16.0631L15.7452 29.8506H17.3346L17.191 30.4584H14.9454ZM17.9498 30.4584L18.9342 26.3073H19.816C20.3903 26.3073 20.7902 26.3382 21.0055 26.4C21.2208 26.4618 21.4054 26.5545 21.549 26.6987C21.7335 26.8841 21.8566 27.121 21.9078 27.3991C21.9591 27.6875 21.9386 28.0172 21.8566 28.3777C21.7643 28.7485 21.631 29.0678 21.4464 29.3562C21.2619 29.6446 21.026 29.8712 20.7492 30.0566C20.5441 30.2009 20.3185 30.2936 20.0724 30.3554C19.8366 30.4172 19.4777 30.4481 19.006 30.4481H17.9498V30.4584ZM18.7496 29.8403H19.3034C19.6007 29.8403 19.8366 29.8197 20.0006 29.7785C20.1647 29.7373 20.3082 29.6652 20.4415 29.5725C20.6261 29.4386 20.7799 29.2738 20.903 29.0678C21.026 28.8721 21.1183 28.6352 21.1798 28.3674C21.2413 28.0996 21.2619 27.873 21.2311 27.6772C21.2003 27.4815 21.1285 27.3064 21.0055 27.1725C20.9132 27.0695 20.8004 27.0077 20.6466 26.9665C20.4928 26.9253 20.257 26.9047 19.9186 26.9047H19.4469L18.7496 29.8403ZM24.8712 28.594L24.4303 30.4584H23.8151L24.7994 26.3073H25.7941C26.0914 26.3073 26.2965 26.3279 26.4298 26.3588C26.5631 26.3897 26.6657 26.4412 26.7477 26.5236C26.8502 26.6163 26.922 26.7502 26.9528 26.915C26.9835 27.0798 26.9733 27.2549 26.9323 27.4506C26.881 27.6463 26.8092 27.8318 26.6964 27.9966C26.5836 28.1614 26.4503 28.2953 26.3068 28.388C26.1837 28.4601 26.0504 28.5219 25.9069 28.5528C25.7633 28.5837 25.5377 28.6043 25.2506 28.6043H24.8712V28.594ZM25.0455 28.0378H25.2096C25.5685 28.0378 25.8248 27.9966 25.9684 27.9142C26.1119 27.8318 26.2042 27.6876 26.2555 27.4815C26.3068 27.2652 26.276 27.1004 26.1735 27.018C26.0607 26.9253 25.8351 26.8841 25.4967 26.8841H25.3327L25.0455 28.0378ZM29.1574 30.4584L28.9523 29.3871H27.3527L26.6349 30.4584H25.9479L28.9215 26.1425L29.8444 30.4584H29.1574ZM27.7423 28.8206H28.86L28.6754 27.873C28.6652 27.8112 28.6549 27.7391 28.6549 27.6669C28.6447 27.5845 28.6447 27.5021 28.6447 27.4094C28.6036 27.5021 28.5626 27.5845 28.5114 27.6669C28.4703 27.7494 28.4293 27.8215 28.3883 27.8833L27.7423 28.8206ZM30.7877 30.4584L31.2389 28.5631L30.4186 26.3176H31.1056L31.6183 27.7288C31.6285 27.77 31.6388 27.8112 31.6593 27.873C31.6798 27.9348 31.6901 27.9966 31.7106 28.0584L31.8336 27.873C31.8746 27.8112 31.9157 27.7597 31.9567 27.7081L33.1564 26.3176H33.8126L31.8952 28.5528L31.444 30.4481H30.7877V30.4584ZM37.0324 28.4086C37.0324 28.3777 37.0426 28.285 37.0631 28.1408C37.0734 28.0172 37.0836 27.9245 37.0939 27.8421C37.0529 27.9348 37.0118 28.0275 36.9606 28.1305C36.9093 28.2232 36.8478 28.3262 36.776 28.4189L35.1969 30.6335L34.6842 28.3777C34.6637 28.285 34.6432 28.1923 34.6329 28.1099C34.6227 28.0275 34.6124 27.9348 34.6124 27.8524C34.5919 27.9348 34.5612 28.0275 34.5304 28.1305C34.4996 28.2232 34.4586 28.3262 34.4074 28.4292L33.4845 30.4687H32.8795L34.8585 26.1425L35.4225 28.7588C35.4327 28.8 35.443 28.8721 35.4533 28.9648C35.4635 29.0575 35.484 29.1811 35.5045 29.3253C35.5763 29.2017 35.6686 29.0575 35.7916 28.8721C35.8224 28.8206 35.8532 28.7897 35.8634 28.7588L37.6476 26.1425L37.5861 30.4687H36.9811L37.0324 28.4086ZM38.1193 30.4584L39.1036 26.3073H41.3493L41.216 26.8841H39.6266L39.3805 27.9245H40.9699L40.8263 28.5116H39.2369L38.9191 29.8506H40.5084L40.3649 30.4584H38.1193ZM41.1134 30.4584L42.1388 26.1425L44.087 28.6764C44.1383 28.7485 44.1896 28.8206 44.2409 28.903C44.2921 28.9854 44.3434 29.0781 44.4049 29.1811L45.0919 26.3073H45.6969L44.6715 30.6129L42.6823 28.0275L42.5285 27.8112C42.4772 27.7288 42.4362 27.6566 42.4054 27.5639L41.7184 30.4481H41.1134V30.4584ZM47.7887 26.8738L46.9376 30.4481H46.2814L47.1325 26.8738H46.0661L46.1993 26.297H48.9884L48.8551 26.8738H47.7887ZM48.4757 29.624L49.0602 29.3768C49.0704 29.5622 49.1217 29.7064 49.2345 29.7991C49.3473 29.8918 49.5011 29.9433 49.7062 29.9433C49.901 29.9433 50.0651 29.8918 50.2086 29.7785C50.3522 29.6652 50.4445 29.521 50.4855 29.3356C50.547 29.0884 50.4035 28.8721 50.0548 28.6867C50.0035 28.6558 49.9728 28.6352 49.942 28.6249C49.5524 28.3983 49.3063 28.2026 49.2037 28.0172C49.1012 27.8318 49.0807 27.6154 49.1422 27.3579C49.2243 27.018 49.3986 26.7502 49.6754 26.5339C49.9523 26.3279 50.2599 26.2146 50.629 26.2146C50.9264 26.2146 51.1622 26.2764 51.3366 26.3897C51.5109 26.503 51.6032 26.6781 51.6339 26.8944L51.0597 27.1622C51.0084 27.0283 50.9469 26.9356 50.8649 26.8738C50.7828 26.812 50.6803 26.7811 50.5573 26.7811C50.3829 26.7811 50.2291 26.8326 50.1061 26.9253C49.983 27.018 49.901 27.1416 49.86 27.3064C49.7985 27.5536 49.9728 27.7906 50.3727 28.0069C50.4035 28.0275 50.424 28.0378 50.4445 28.0481C50.7931 28.2335 51.0289 28.4189 51.1315 28.6043C51.234 28.7897 51.2545 29.006 51.193 29.2841C51.1007 29.6755 50.9059 29.9845 50.6085 30.2215C50.3112 30.4481 49.9625 30.5717 49.5524 30.5717C49.214 30.5717 48.9474 30.4893 48.7628 30.3245C48.5577 30.1597 48.4655 29.9227 48.4757 29.624ZM53.3053 30.4584L54.2897 26.3073H54.9459L53.9616 30.4584H53.3053ZM54.9049 30.4584L55.9303 26.1425L57.8786 28.6764C57.9298 28.7485 57.9811 28.8206 58.0324 28.903C58.0836 28.9854 58.1349 29.0781 58.1964 29.1811L58.8834 26.3073H59.4884L58.463 30.6129L56.4738 28.0275L56.32 27.8112C56.2687 27.7288 56.2277 27.6566 56.1969 27.5639L55.5099 30.4481H54.9049V30.4584ZM61.5802 26.8738L60.7291 30.4481H60.0729L60.924 26.8738H59.8576L59.9909 26.297H62.7799L62.6466 26.8738H61.5802ZM62.2877 30.4584L63.2721 26.3073H65.528L65.3947 26.8841H63.8053L63.5592 27.9245H65.1486L65.005 28.5116H63.4157L63.0978 29.8506H64.6871L64.5436 30.4584H62.2877ZM66.338 28.594L65.8971 30.4481H65.2819L66.2663 26.297H67.1788C67.4454 26.297 67.6505 26.3176 67.7838 26.3485C67.9274 26.3794 68.0402 26.4412 68.1222 26.5236C68.2247 26.6266 68.2863 26.7502 68.317 26.915C68.3478 27.0695 68.3375 27.2446 68.2965 27.4403C68.2145 27.77 68.0812 28.0378 67.8761 28.2232C67.671 28.4086 67.4147 28.5219 67.1071 28.5631L68.0402 30.4481H67.3019L66.4098 28.594H66.338ZM66.5021 28.0687H66.6251C66.9738 28.0687 67.2096 28.0275 67.3429 27.9451C67.4762 27.8627 67.5685 27.7185 67.6198 27.5021C67.671 27.2755 67.6505 27.1107 67.548 27.018C67.4454 26.9253 67.2301 26.8738 66.902 26.8738H66.7789L66.5021 28.0687ZM68.4401 30.4584L69.4245 26.3073H71.6701L71.5368 26.8841H69.9474L69.7013 27.9142H71.2907L71.1471 28.5013H69.5577L69.0963 30.4481H68.4401V30.4584ZM73.8541 30.4584L73.6491 29.3871H72.0494L71.3317 30.4584H70.6447L73.6183 26.1425L74.5412 30.4584H73.8541ZM72.4288 28.8206H73.5465L73.362 27.873C73.3517 27.8112 73.3414 27.7391 73.3414 27.6669C73.3312 27.5845 73.3312 27.5021 73.3312 27.4094C73.2902 27.5021 73.2492 27.5845 73.1979 27.6669C73.1569 27.7494 73.1159 27.8215 73.0748 27.8833L72.4288 28.8206ZM78.8068 27.3167C78.6632 27.1519 78.4889 27.0283 78.3043 26.9562C78.1198 26.8738 77.9147 26.8326 77.6788 26.8326C77.2379 26.8326 76.8483 26.9768 76.4996 27.2652C76.151 27.5536 75.9254 27.9348 75.8126 28.3983C75.7101 28.8412 75.7511 29.212 75.9562 29.5107C76.151 29.7991 76.4586 29.9433 76.8688 29.9433C77.1046 29.9433 77.3405 29.9021 77.5763 29.8094C77.8121 29.727 78.048 29.5931 78.2941 29.418L78.1095 30.1803C77.9044 30.3142 77.6891 30.4069 77.4635 30.4687C77.2379 30.5305 77.0123 30.5614 76.7662 30.5614C76.4586 30.5614 76.1818 30.5099 75.9459 30.4069C75.7101 30.3039 75.5153 30.1494 75.3615 29.9433C75.2077 29.7476 75.1154 29.5107 75.0743 29.2429C75.0333 28.9751 75.0436 28.6867 75.1256 28.3777C75.1974 28.0687 75.3204 27.7906 75.4845 27.5227C75.6486 27.2549 75.8639 27.018 76.11 26.8223C76.3561 26.6163 76.6227 26.4618 76.9098 26.3588C77.1969 26.2558 77.484 26.2043 77.7814 26.2043C78.0172 26.2043 78.2326 26.2352 78.4376 26.3073C78.6325 26.3794 78.817 26.4824 78.9811 26.6266L78.8068 27.3167ZM78.8683 30.4584L79.8527 26.3073H82.0983L81.965 26.8841H80.3756L80.1295 27.9245H81.7189L81.5753 28.5116H79.986L79.6681 29.8506H81.2575L81.1139 30.4584H78.8683Z" fill="#B1B3C3"/>
<path d="M66.9329 22.6918H62.4315L68.6863 0H73.1878L66.9329 22.6918ZM64.595 0.710729C64.2874 0.278111 63.8055 0.0618024 63.1492 0.0618024H38.4168L37.1966 4.51159H59.6937L58.3812 9.26009H40.3856V9.24979H35.8841L32.1517 22.7948H36.6531L39.1551 13.7099H59.386C60.0218 13.7099 60.6165 13.4936 61.1702 13.0609C61.7239 12.6283 62.0931 12.0927 62.2674 11.4541L64.7693 2.3691C64.9642 1.68927 64.9026 1.14335 64.595 0.710729ZM29.5267 21.2704C29.2806 22.1665 28.4603 22.7948 27.5374 22.7948H4.33282C3.69708 22.7948 3.2254 22.5785 2.91778 22.1459C2.61017 21.7133 2.53839 21.1777 2.72296 20.5391L8.38312 0.0618024H12.8846L7.82941 18.3554H25.8353L30.8904 0.0618024H35.3919L29.5267 21.2704Z" fill="#FAFAF9"/>
<path d="M80.9602 0.0411987L86.6511 11.4129L74.6848 22.7845L80.9602 0.0411987Z" fill="#098041"/>
<path d="M76.9612 0.0411987L82.6521 11.4129L70.6755 22.7845L76.9612 0.0411987Z" fill="#E97626"/>
</svg>
