<svg width="40" height="40" viewBox="0 0 40 40" fill="none" xmlns="http://www.w3.org/2000/svg">
<path opacity="0.4" d="M35.1333 14.3001V25.7C35.1333 27.5667 34.1332 29.3001 32.5166 30.2501L22.6166 35.9667C20.9999 36.9001 18.9999 36.9001 17.3665 35.9667L7.46653 30.2501C5.84987 29.3167 4.84985 27.5833 4.84985 25.7V14.3001C4.84985 12.4334 5.84987 10.7 7.46653 9.74998L17.3665 4.03333C18.9832 3.09999 20.9832 3.09999 22.6166 4.03333L32.5166 9.74998C34.1332 10.7 35.1333 12.4167 35.1333 14.3001Z" fill="#6C7AF5"/>
<path d="M20 22.9167C19.3167 22.9167 18.75 22.35 18.75 21.6667V12.9167C18.75 12.2333 19.3167 11.6667 20 11.6667C20.6833 11.6667 21.25 12.2333 21.25 12.9167V21.6667C21.25 22.35 20.6833 22.9167 20 22.9167Z" fill="#6C7AF5"/>
<path d="M20.0002 28.75C19.7835 28.75 19.5668 28.6999 19.3668 28.6166C19.1502 28.5333 18.9835 28.4167 18.8168 28.2667C18.6668 28.1 18.5502 27.9166 18.4502 27.7166C18.3668 27.5166 18.3335 27.3 18.3335 27.0833C18.3335 26.65 18.5001 26.2166 18.8168 25.8999C18.9835 25.7499 19.1502 25.6333 19.3668 25.55C19.9835 25.2833 20.7169 25.4333 21.1835 25.8999C21.3335 26.0666 21.4501 26.2333 21.5335 26.45C21.6168 26.65 21.6668 26.8666 21.6668 27.0833C21.6668 27.3 21.6168 27.5166 21.5335 27.7166C21.4501 27.9166 21.3335 28.1 21.1835 28.2667C20.8669 28.5833 20.4502 28.75 20.0002 28.75Z" fill="#6C7AF5"/>
</svg>
