<svg width="24" height="24" viewBox="0 0 24 24" fill="none" xmlns="http://www.w3.org/2000/svg">
<g clip-path="url(#clip0_8763_46974)">
<g clip-path="url(#clip1_8763_46974)">
<path d="M16.7619 13.251L13.2617 23.9501L24.0011 13.251H16.7619Z" fill="#DED6CA"/>
<path d="M9.16016 11.7749H14.8528L12.0289 7.6377L9.16016 11.7749Z" fill="#DED6CA"/>
<path d="M11.135 6.33496H4.94141L7.82366 11.1104L11.135 6.33496Z" fill="#DED6CA"/>
<path d="M3.78656 7.28027L0.117188 11.7743H6.49894L3.78656 7.28027Z" fill="#DED6CA"/>
<path d="M0 13.251L10.7891 23.9996L7.2727 13.251H0Z" fill="#DED6CA"/>
<path d="M12.0187 23.0036L15.2092 13.251H8.82812L12.0187 23.0036Z" fill="#DED6CA"/>
<path d="M19.059 6.33496H12.9258L16.1945 11.124L19.059 6.33496Z" fill="#DED6CA"/>
<path d="M23.8816 11.7751L20.214 7.2832L17.5273 11.7751H23.8816Z" fill="#DED6CA"/>
<path d="M11.2969 0H12.7022V1.79011H11.2969V0Z" fill="#DED6CA"/>
<path d="M6.8125 2.02637L7.80606 1.03281L9.1748 2.40155L8.18124 3.39511L6.8125 2.02637Z" fill="#DED6CA"/>
<path d="M14.8203 2.40234L16.1891 1.0336L17.1826 2.02716L15.8139 3.3959L14.8203 2.40234Z" fill="#DED6CA"/>
</g>
</g>
<defs>
<clipPath id="clip0_8763_46974">
<rect width="24" height="24" fill="white"/>
</clipPath>
<clipPath id="clip1_8763_46974">
<rect width="24" height="24" fill="white"/>
</clipPath>
</defs>
</svg>
