<svg width="24" height="24" viewBox="0 0 24 24" fill="none" xmlns="http://www.w3.org/2000/svg">
<g clip-path="url(#clip0_8763_46968)">
<g clip-path="url(#clip1_8763_46968)">
<path d="M0 23.4358H24V11.5742H0V23.4358ZM16.5236 14.0565H21.6337V15.5704L20.2661 17.7081C19.7143 18.5707 19.4226 19.5679 19.4226 20.5919V21.1615H18.0164V20.5919C18.0164 19.2988 18.3847 18.0396 19.0815 16.9504L20.0331 15.4628H17.9299V16.827H16.5236V14.0565ZM9.44498 14.0565H14.5551V15.5704L13.1875 17.7081C12.6357 18.5707 12.344 19.5679 12.344 20.5919V21.1615H10.9377V20.5919C10.9377 19.2988 11.306 18.0396 12.0029 16.9504L12.9545 15.4628H10.8512V16.827H9.44494L9.44498 14.0565ZM2.27255 14.0565H7.38258V15.5704L6.015 17.7081C5.46319 18.5707 5.17153 19.5679 5.17153 20.5919V21.1615H3.76528V20.5919C3.76528 19.2988 4.13358 18.0396 4.83042 16.9504L5.78203 15.4628H3.6788V16.827H2.27255V14.0565Z" fill="#DED6CA"/>
<path d="M1.38764 9.58493L3.63286 9.07498L5.87808 9.58493L6.08691 7.29199L7.26567 5.3142L5.14955 4.40702L3.63286 2.6748L2.11617 4.40702L0 5.3142L1.17877 7.29199L1.38764 9.58493Z" fill="#DED6CA"/>
<path d="M9.75483 7.47458L12 6.96463L14.2453 7.47458L14.4541 5.18164L15.6329 3.20394L13.5167 2.29672L12 0.564453L10.4834 2.29672L8.36719 3.20394L9.54595 5.18164L9.75483 7.47458Z" fill="#DED6CA"/>
<path d="M18.122 9.58493L20.3672 9.07498L22.6124 9.58493L22.8213 7.29199L24 5.3142L21.8839 4.40702L20.3672 2.6748L18.8505 4.40702L16.7344 5.3142L17.9131 7.29199L18.122 9.58493Z" fill="#DED6CA"/>
</g>
</g>
<defs>
<clipPath id="clip0_8763_46968">
<rect width="24" height="24" fill="white"/>
</clipPath>
<clipPath id="clip1_8763_46968">
<rect width="24" height="24" fill="white"/>
</clipPath>
</defs>
</svg>
