<svg width="24" height="24" viewBox="0 0 24 24" fill="none" xmlns="http://www.w3.org/2000/svg">
<g clip-path="url(#clip0_8763_46986)">
<g clip-path="url(#clip1_8763_46986)">
<path d="M17.543 16.1191H19.364V17.8086H17.543V16.1191Z" fill="#DED6CA"/>
<path d="M10.3194 3.20845L11.4149 0H4.23438L5.32994 3.20845H10.3194Z" fill="#DED6CA"/>
<path d="M9.68311 17.8082H16.1376V14.1861C16.1376 11.0653 14.765 8.1267 12.3719 6.12373L10.5684 4.61426H5.10066L3.43589 6.12987C1.25231 8.11774 0 10.9515 0 13.9044V23.9996H9.68311V17.8082ZM7.17558 16.1978V14.8222C6.35194 14.5316 5.75991 13.7458 5.75991 12.8239H7.16616C7.16616 13.2168 7.4858 13.5364 7.8787 13.5364C8.27161 13.5364 8.59125 13.2168 8.59125 12.8239C8.59125 12.4701 8.33203 12.1757 7.99355 12.1206H7.8787C6.71039 12.1206 5.75991 11.1701 5.75991 10.0018C5.75991 9.0799 6.35194 8.29413 7.17558 8.00346V6.62787H8.58183V8.00346C9.40547 8.29413 9.9975 9.0799 9.9975 10.0018H8.59125C8.59125 9.60888 8.27161 9.28929 7.8787 9.28929C7.4858 9.28929 7.16616 9.60888 7.16616 10.0018C7.16616 10.3556 7.42537 10.65 7.76386 10.7051H7.8787C9.04701 10.7051 9.9975 11.6556 9.9975 12.8239C9.9975 13.7458 9.40551 14.5316 8.58183 14.8222V16.1978H7.17558Z" fill="#DED6CA"/>
<path d="M14.3164 19.2148H16.1374V20.9043H14.3164V19.2148Z" fill="#DED6CA"/>
<path d="M11.0898 22.3105H12.9108V24H11.0898V22.3105Z" fill="#DED6CA"/>
<path d="M20.7695 19.2148H22.5905V20.9043H20.7695V19.2148Z" fill="#DED6CA"/>
<path d="M20.7695 16.1191H22.5905V17.8086H20.7695V16.1191Z" fill="#DED6CA"/>
<path d="M20.7695 13.0234H22.5905V14.7129H20.7695V13.0234Z" fill="#DED6CA"/>
<path d="M20.7695 22.3105H22.5905V24H20.7695V22.3105Z" fill="#DED6CA"/>
<path d="M17.543 13.0234H19.364V14.7129H17.543V13.0234Z" fill="#DED6CA"/>
<path d="M17.543 22.3105H19.364V24H17.543V22.3105Z" fill="#DED6CA"/>
<path d="M17.543 19.2148H19.364V20.9043H17.543V19.2148Z" fill="#DED6CA"/>
<path d="M11.0898 19.2148H12.9108V20.9043H11.0898V19.2148Z" fill="#DED6CA"/>
<path d="M14.3164 22.3105H16.1374V24H14.3164V22.3105Z" fill="#DED6CA"/>
<path d="M21.2031 3.97754H22.601V5.3754H21.2031V3.97754Z" fill="#DED6CA"/>
<path d="M21.2031 6.77344H22.601V8.1713H21.2031V6.77344Z" fill="#DED6CA"/>
<path d="M22.6016 5.375H23.9994V6.77286H22.6016V5.375Z" fill="#DED6CA"/>
<path d="M19.8047 5.375H21.2025V6.77286H19.8047V5.375Z" fill="#DED6CA"/>
</g>
</g>
<defs>
<clipPath id="clip0_8763_46986">
<rect width="24" height="24" fill="white"/>
</clipPath>
<clipPath id="clip1_8763_46986">
<rect width="24" height="24" fill="white"/>
</clipPath>
</defs>
</svg>
