<svg width="24" height="24" viewBox="0 0 24 24" fill="none" xmlns="http://www.w3.org/2000/svg">
<g clip-path="url(#clip0_8763_46980)">
<path d="M5.45748 3.15625H3.70703V23.9995H17.1375V22.2491H5.45748V3.15625Z" fill="#DED6CA"/>
<path d="M17.1301 12.4016V10.042L10.2734 16.8987L11.0083 17.6335H11.8982L17.1301 12.4016Z" fill="#DED6CA"/>
<path d="M13.3738 3.11621H11.0108L10.0273 4.0997V6.46271L13.3738 3.11621Z" fill="#DED6CA"/>
<path d="M13.8867 17.6339H16.1465L17.13 16.6504V14.3906L13.8867 17.6339Z" fill="#DED6CA"/>
<path d="M6.86328 0V20.8433H20.2938V0H6.86328ZM18.5374 17.2329L16.7301 19.0401H10.4269L8.61959 17.2329V3.5167L10.4269 1.70948H16.7301L18.5374 3.5167V17.2329Z" fill="#DED6CA"/>
<path d="M10.0273 15.1591L17.1326 8.05388V5.69434L10.0273 12.7996V15.1591Z" fill="#DED6CA"/>
<path d="M10.0273 8.45143V10.811L16.9356 3.90273L16.1491 3.11621H15.3626L10.0273 8.45143Z" fill="#DED6CA"/>
</g>
<defs>
<clipPath id="clip0_8763_46980">
<rect width="24" height="24" fill="white"/>
</clipPath>
</defs>
</svg>
