<svg width="64" height="64" viewBox="0 0 64 64" fill="none" xmlns="http://www.w3.org/2000/svg">
<g clip-path="url(#clip0_8763_46960)">
<path d="M12.1568 45.9809C12.1568 45.9809 8.625 43.8122 8.625 39.2324C8.625 39.2324 13.7439 35.5916 13.9862 35.7491C16.4033 37.2696 21.3284 40.6984 21.3284 40.6984L20.2077 46.9986C17.9905 47.1985 12.1568 45.9869 12.1568 45.9869V45.9809Z" fill="url(#paint0_radial_8763_46960)"/>
<path d="M36.2282 19.4718C36.2282 19.4718 36.9975 19.3022 38.0455 19.5688C36.1918 17.1335 33.7505 15.098 30.7942 13.6987C30.1339 13.3837 29.4615 13.1111 28.7891 12.8809C28.9708 13.3715 29.4251 14.4983 29.4251 14.4983L36.2282 19.4718Z" fill="#231F20"/>
<path d="M22.7877 16.2796L29.3787 14.4683C29.3787 14.4683 29.1788 13.4506 28.888 12.9114C23.872 11.1425 18.5169 11.5302 13.9492 13.6747C14.9851 14.4138 14.9548 15.6072 14.9548 15.6072L22.7937 16.2856L22.7877 16.2796Z" fill="url(#paint1_radial_8763_46960)"/>
<path d="M36.2305 19.4726C36.176 19.4908 36.703 26.2514 36.703 26.2514L39.7077 33.6723H41.9795C42.5307 28.614 41.0889 23.5496 38.0358 19.5514C37.5814 19.4242 36.8605 19.2909 36.2305 19.4726Z" fill="url(#paint2_radial_8763_46960)"/>
<path d="M39.6987 33.672C39.6442 33.678 35.1371 40.0388 35.1371 40.0388L33.6953 46.6116L34.9129 46.7752C37.0817 44.9881 38.9051 42.7043 40.1894 39.9964C41.1647 37.9367 41.7523 35.7862 41.9825 33.6417C41.4615 33.5993 40.4923 33.5569 39.7047 33.672H39.6987Z" fill="url(#paint3_radial_8763_46960)"/>
<path d="M25.7982 49.8826C25.7982 49.8826 25.5195 50.3612 25.2227 51.076C28.7968 50.5429 32.1892 49.0405 34.994 46.7083C34.4791 46.6416 33.6976 46.6113 33.6976 46.6113L25.7982 49.8826Z" fill="black"/>
<path d="M20.2052 46.9931C18.9452 47.3202 12.1543 45.9814 12.1543 45.9814L10.6641 47.4596C11.6576 48.1865 12.7359 48.8347 13.8929 49.3799C17.564 51.1185 21.5077 51.6274 25.2454 51.0701L25.7967 49.8827C25.7967 49.8827 20.8837 46.8174 20.2113 46.9931H20.2052Z" fill="url(#paint4_radial_8763_46960)"/>
<path d="M12.1566 45.9819C8.89744 42.7591 8.62484 39.2334 8.62484 39.2334C8.62484 39.2334 5.26271 36.6891 3.98449 34.5506C3.74823 34.1629 3.02734 35.6289 3.02734 35.6289C4.01478 40.2814 6.67419 44.5401 10.6663 47.46C11.0056 47.1329 12.4777 46.2969 12.1566 45.9819Z" fill="url(#paint5_radial_8763_46960)"/>
<path d="M4.72251 26.0876C4.72251 26.0876 4.38326 25.3304 3.9471 24.3672C2.4932 28.0867 2.24483 32.0122 3.03841 35.6894C3.35948 35.3138 3.97738 34.5505 3.97738 34.5505L4.71645 26.0876H4.72251Z" fill="black"/>
<path d="M25.7965 49.8828C25.2331 49.9312 20.0415 47.9624 20.2111 46.9931C20.3747 46.0239 21.3197 40.5597 21.3197 40.5597L29.4433 36.6826C29.4433 36.6826 34.9378 39.8872 35.1923 39.9115C35.5436 41.6986 33.702 46.6054 33.702 46.6054C33.702 46.6054 28.5528 49.6344 25.8025 49.8767L25.7965 49.8828Z" fill="url(#paint6_radial_8763_46960)"/>
<g style="mix-blend-mode:multiply">
<path d="M33.7642 46.4231C32.6859 47.0712 31.5773 47.6589 30.4445 48.2041C29.875 48.4767 29.2995 48.725 28.718 48.9613C28.1304 49.1915 27.5367 49.4035 26.9248 49.561C26.6159 49.6398 26.3069 49.7004 25.9919 49.7367C25.9556 49.7367 25.9132 49.7428 25.8708 49.7488C25.8284 49.7488 25.7799 49.7488 25.7435 49.7428C25.6648 49.7307 25.586 49.7125 25.5073 49.6943C25.3558 49.658 25.2044 49.6095 25.0529 49.561C24.7501 49.4641 24.4532 49.3611 24.1624 49.246C23.8656 49.137 23.5748 49.0158 23.2901 48.8947C22.7146 48.6463 22.1452 48.3737 21.5939 48.0647C21.3213 47.9072 21.0547 47.7437 20.8003 47.5498C20.6731 47.4529 20.558 47.3499 20.4489 47.2287C20.4005 47.1682 20.352 47.1076 20.3157 47.0349C20.2793 46.9622 20.2612 46.8834 20.2733 46.8047C20.2612 46.8834 20.2854 46.9622 20.3217 47.0288C20.3581 47.0955 20.4065 47.1621 20.4611 47.2166C20.564 47.3317 20.6913 47.4287 20.8124 47.5256C21.0669 47.7134 21.3395 47.8709 21.6121 48.0163C22.1633 48.3131 22.7328 48.5736 23.3143 48.8159C23.8959 49.0522 24.4774 49.2763 25.0772 49.4641C25.2286 49.5126 25.374 49.555 25.5255 49.5913C25.5982 49.6095 25.6769 49.6277 25.7496 49.6398C25.786 49.6398 25.8223 49.6458 25.8586 49.6398C25.895 49.6398 25.9374 49.6337 25.9737 49.6277C26.2827 49.5913 26.5917 49.5247 26.8885 49.452C27.4943 49.3006 28.088 49.0946 28.6695 48.8644C29.2511 48.6402 29.8266 48.3858 30.396 48.1253C30.9654 47.8648 31.5288 47.5862 32.0862 47.3014C32.6435 47.0167 33.2008 46.7199 33.746 46.417L33.7642 46.4231Z" fill="#D1D3D4"/>
</g>
<path d="M30.2381 27.9955L22.896 23.0644L22.793 16.2796C22.793 16.2796 26.5973 14.0321 29.384 14.4683C30.753 14.6803 36.1991 18.7936 36.2476 19.5387C36.296 20.2839 36.708 26.2509 36.708 26.2509L30.2442 28.0016L30.2381 27.9955Z" fill="url(#paint7_radial_8763_46960)"/>
<path d="M36.0898 19.4719C36.3382 19.9868 36.4836 20.5441 36.5805 21.1075C36.6775 21.6709 36.7138 22.2403 36.7259 22.8098C36.7259 23.0945 36.7259 23.3792 36.7138 23.6639C36.7017 23.9487 36.6835 24.2334 36.6532 24.5181C36.5987 25.0815 36.52 25.6509 36.3988 26.2022C36.4594 25.6388 36.5018 25.0754 36.5381 24.506C36.5502 24.2213 36.5684 23.9426 36.5745 23.6579C36.5805 23.3732 36.5866 23.0945 36.5745 22.8098C36.5745 22.5251 36.5624 22.2464 36.5442 21.9617C36.526 21.683 36.5018 21.3983 36.4654 21.1196C36.3927 20.5623 36.2837 20.005 36.0959 19.4658L36.0898 19.4719Z" fill="#D1D3D4"/>
<path d="M10.0409 22.0408L14.9478 15.6013C14.9478 15.6013 14.9781 14.0323 14.2633 13.5234C10.1197 15.3772 6.59397 18.6605 4.49794 23.0889C4.30409 23.4947 4.12841 23.9067 3.96484 24.3247C4.23139 25.0213 4.72208 26.0875 4.72208 26.0875L10.0409 22.0469V22.0408Z" fill="url(#paint8_radial_8763_46960)"/>
<path d="M14.766 26.9237C14.2511 27.6749 10.2892 22.3016 10.0409 22.0411C9.79854 21.7806 14.2147 15.6985 14.9478 15.6015C18.7036 15.1169 22.7867 16.28 22.7867 16.28C22.7867 16.28 23.8589 23.0467 22.8896 23.0467C21.6599 23.0467 15.7777 25.4456 14.766 26.9237Z" fill="url(#paint9_radial_8763_46960)"/>
<path d="M8.62584 39.2333C9.43759 39.6453 13.9871 35.75 13.9871 35.75L14.7685 26.9297C12.7755 25.4092 10.8551 22.5802 10.0434 22.0471C9.47394 21.6715 4.98504 25.391 4.72455 26.0877C3.47663 29.4438 3.98549 34.5506 3.98549 34.5506C3.98549 34.5506 4.72455 37.2645 8.62584 39.2333Z" fill="url(#paint10_radial_8763_46960)"/>
<g style="mix-blend-mode:multiply">
<path d="M4.97601 25.9541C4.86091 26.2933 4.76398 26.6326 4.67917 26.9779C4.59436 27.3232 4.53378 27.6745 4.4732 28.0259C4.3581 28.7286 4.29146 29.4374 4.24906 30.1462C4.20665 30.8549 4.19454 31.5698 4.20665 32.2785C4.20665 32.636 4.21877 32.9873 4.23694 33.3447C4.25512 33.7021 4.27329 34.0535 4.30358 34.4109V34.3988C4.33993 34.526 4.39445 34.6593 4.44897 34.7805C4.50349 34.9077 4.56407 35.0349 4.6307 35.156C4.75792 35.4044 4.90937 35.6407 5.06687 35.8709C5.38794 36.3313 5.75141 36.7553 6.15124 37.143C6.55106 37.5368 6.98723 37.8881 7.44157 38.2153C7.89591 38.5424 8.38054 38.8332 8.87729 39.0997C8.36842 38.8574 7.87774 38.5788 7.40522 38.2698C6.9327 37.9608 6.49048 37.6095 6.07854 37.2218C5.6666 36.8341 5.28496 36.41 4.95783 35.9496C4.79427 35.7194 4.64282 35.4771 4.50349 35.2287C4.43685 35.1015 4.37022 34.9743 4.31569 34.8471C4.25512 34.7138 4.20665 34.5866 4.16425 34.4412V34.4291C4.09761 33.7143 4.07338 32.9994 4.06732 32.2846C4.06126 31.5698 4.08549 30.8549 4.13396 30.1401C4.18848 29.4253 4.27329 28.7165 4.40656 28.0138C4.4732 27.6624 4.55195 27.3111 4.64888 26.9718C4.7458 26.6265 4.85485 26.2873 4.98812 25.9541H4.97601Z" fill="#DADCDD"/>
</g>
<path d="M13.9651 35.913C13.9166 35.1497 13.8984 34.3925 13.8984 33.6232C13.8984 33.2415 13.9106 32.8599 13.9287 32.4782C13.953 32.0178 13.9651 31.7937 14.0014 31.3333C14.0378 30.8729 14.062 30.6487 14.1105 30.1883C14.1529 29.8067 14.2013 29.425 14.2619 29.0434C14.3831 28.2801 14.5224 27.5229 14.692 26.7656C14.583 27.5289 14.48 28.2922 14.3831 29.0555C14.3407 29.4372 14.2922 29.8188 14.2559 30.2004C14.2074 30.6608 14.1892 30.885 14.1529 31.3454C14.1165 31.8058 14.0983 32.0299 14.0741 32.4903C14.0499 32.872 14.0378 33.2536 14.0196 33.6353C13.9954 34.3925 13.9772 35.1558 13.9711 35.913H13.9651Z" fill="#D1D3D4"/>
<path d="M30.2385 27.9956C30.6384 29.2011 29.4753 36.4584 29.4571 36.8159C29.4389 37.1733 34.7274 40.4809 35.2727 39.9841C37.9624 37.5246 39.386 35.9617 39.707 33.6718C39.9554 31.8726 37.3929 26.6083 36.7023 26.2509C36.0117 25.8935 29.8387 26.7961 30.2385 28.0016V27.9956Z" fill="url(#paint11_radial_8763_46960)"/>
<path d="M21.3344 40.6925C18.6083 39.6385 15.8217 38.0998 13.9922 35.7432C14.1497 32.7567 14.2527 29.7702 14.5737 26.7957C17.1302 24.9481 19.8805 23.894 22.8973 23.0459C25.799 23.367 30.2395 27.9952 30.2395 27.9952C30.2395 27.9952 31.4389 30.6243 29.6579 36.9427C27.1015 38.7904 24.3512 39.8444 21.3344 40.6925Z" fill="url(#paint12_radial_8763_46960)"/>
<path d="M21.4711 40.5655C20.7623 40.3232 20.0656 40.0445 19.3932 39.7235C19.054 39.566 18.7208 39.3903 18.3937 39.2146C18.0665 39.0329 17.7455 38.8451 17.4244 38.6391C17.1094 38.4331 16.8004 38.2211 16.4975 37.997C16.2007 37.7668 15.9099 37.5305 15.6313 37.2821C15.3526 37.0338 15.0861 36.7672 14.8316 36.4885C14.5832 36.2099 14.3409 35.9191 14.1289 35.6162C14.6135 36.1857 15.1406 36.7127 15.71 37.1913C15.9947 37.4336 16.2855 37.6638 16.5884 37.8819C16.8852 38.0999 17.1942 38.312 17.5092 38.5119C17.8242 38.7118 18.1392 38.9056 18.4664 39.0874C18.7874 39.2752 19.1206 39.4448 19.4477 39.6144C20.1141 39.9537 20.7926 40.2626 21.4771 40.5595L21.4711 40.5655Z" fill="#E6E7E8"/>
<path d="M22.9453 22.9492C23.6238 23.2218 24.2781 23.5187 24.9323 23.8518C25.2534 24.0215 25.5684 24.2032 25.8834 24.391C26.259 24.6212 26.4407 24.7363 26.8102 24.9786C27.1737 25.227 27.3555 25.3542 27.7068 25.6207C28.0037 25.8449 28.2944 26.0751 28.5792 26.3114C29.1486 26.802 29.6999 27.317 30.233 27.8622C29.6635 27.3836 29.088 26.9111 28.5065 26.4567C28.2096 26.2326 27.9188 26.0085 27.622 25.7964C27.2646 25.5359 27.0829 25.4087 26.7194 25.1664C26.3559 24.918 26.1681 24.7969 25.7986 24.5667C25.4896 24.3728 25.1746 24.185 24.8596 23.9972C24.2296 23.6338 23.5874 23.2885 22.9453 22.9492Z" fill="#DCDDDE"/>
<path d="M4.72266 26.0334C5.09219 25.6094 5.47383 25.2035 5.87971 24.8097C6.07962 24.6159 6.29165 24.4341 6.50368 24.2463C6.75811 24.0283 6.89138 23.9253 7.15187 23.7193C7.41842 23.5133 7.55169 23.4164 7.83035 23.2226C8.06055 23.065 8.29681 22.9075 8.53307 22.7622C9.02376 22.4653 9.51445 22.1988 10.0294 21.9443C9.5508 22.2412 9.07828 22.5441 8.61182 22.853C8.38162 23.0105 8.15142 23.168 7.92122 23.3377C7.64862 23.5315 7.51535 23.6345 7.2488 23.8405C6.98225 24.0464 6.84898 24.1494 6.59455 24.3614C6.37646 24.5371 6.16443 24.7189 5.95241 24.9006C5.53441 25.2701 5.12248 25.6518 4.72266 26.0334Z" fill="#DCDDDE"/>
<g style="mix-blend-mode:screen">
<path d="M29.3711 36.9854C29.8012 37.3246 30.2434 37.6517 30.6917 37.9546C31.14 38.2636 31.6004 38.5604 32.0729 38.8391C32.5454 39.1117 33.024 39.3782 33.5147 39.6205C33.7631 39.7417 34.0054 39.8568 34.2598 39.9598C34.387 40.0143 34.5142 40.0628 34.6415 40.1112C34.702 40.1355 34.7687 40.1597 34.8353 40.1779C34.8656 40.19 34.9019 40.196 34.9322 40.2082C34.9625 40.2142 34.9989 40.2263 35.0231 40.2263H35.0595L35.0655 40.2687C35.12 40.5534 35.1079 40.8382 35.0897 41.1229C35.0655 41.4076 35.0231 41.6863 34.9746 41.9649C34.8717 42.5223 34.7384 43.0675 34.5809 43.6127C34.4234 44.1518 34.2538 44.691 34.072 45.2241C33.8842 45.7572 33.6904 46.2842 33.4783 46.8052C33.6661 46.2782 33.8539 45.7451 34.0236 45.2059C34.1992 44.6728 34.3567 44.1337 34.5021 43.5885C34.6475 43.0432 34.7808 42.498 34.8777 41.9468C34.9262 41.6681 34.9625 41.3955 34.9868 41.1168C35.0049 40.8382 35.011 40.5595 34.9625 40.2869L35.0049 40.3293C34.9625 40.3293 34.9322 40.3111 34.8959 40.3051C34.8595 40.293 34.8293 40.2869 34.799 40.2748C34.7323 40.2506 34.6657 40.2263 34.6051 40.2021C34.4779 40.1536 34.3507 40.0991 34.2235 40.0506C33.969 39.9416 33.7207 39.8265 33.4783 39.7053C32.9877 39.463 32.503 39.1965 32.0366 38.9118C31.5701 38.627 31.1097 38.3241 30.6675 38.0031C30.2253 37.682 29.7891 37.3488 29.3711 36.9914V36.9854Z" fill="#BCBEC0"/>
</g>
<path style="mix-blend-mode:screen" opacity="0.65" d="M37.721 27.8626C37.721 34.4475 32.384 39.7905 25.793 39.7905C19.202 39.7905 13.8711 34.4535 13.8711 27.8626C13.8711 21.2716 19.2081 15.9346 25.793 15.9346C32.378 15.9346 37.721 21.2716 37.721 27.8626Z" fill="url(#paint13_radial_8763_46960)"/>
<path style="mix-blend-mode:multiply" d="M42.0951 31.5397C42.0951 42.444 33.2566 51.2885 22.3464 51.2885C11.4361 51.2885 2.59766 42.45 2.59766 31.5397C2.59766 20.6295 11.4361 11.791 22.3464 11.791C33.2566 11.791 42.0951 20.6295 42.0951 31.5397Z" fill="url(#paint14_radial_8763_46960)"/>
<path style="mix-blend-mode:multiply" d="M42.0209 31.5993C42.0209 42.5035 33.1824 51.348 22.2722 51.348C11.3619 51.348 2.52344 42.5096 2.52344 31.5993C2.52344 20.6891 11.3619 11.8506 22.2722 11.8506C33.1824 11.8506 42.0209 20.6891 42.0209 31.5993Z" fill="url(#paint15_radial_8763_46960)"/>
<path style="mix-blend-mode:multiply" d="M42.142 31.5397C42.142 42.444 33.3035 51.2885 22.3933 51.2885C11.483 51.2885 2.64453 42.45 2.64453 31.5397C2.64453 20.6295 11.483 11.791 22.3933 11.791C33.3035 11.791 42.142 20.6295 42.142 31.5397Z" fill="url(#paint16_radial_8763_46960)"/>
<path style="mix-blend-mode:screen" opacity="0.82" d="M55.3342 24.1768C56.6554 10.9401 46.996 -0.861375 33.7594 -2.18257C20.5227 -3.50376 8.72124 6.15563 7.40005 19.3923C6.07885 32.6289 15.7382 44.4304 28.9749 45.7516C42.2116 47.0728 54.013 37.4134 55.3342 24.1768Z" fill="url(#paint17_radial_8763_46960)"/>
</g>
<defs>
<radialGradient id="paint0_radial_8763_46960" cx="0" cy="0" r="1" gradientUnits="userSpaceOnUse" gradientTransform="translate(20.1665 35.2009) scale(11.5639)">
<stop offset="0.05" stop-color="#AAA9AA"/>
<stop offset="0.34" stop-color="#6D6C6D"/>
<stop offset="0.65" stop-color="#323232"/>
<stop offset="0.88" stop-color="#0D0D0D"/>
<stop offset="1"/>
</radialGradient>
<radialGradient id="paint1_radial_8763_46960" cx="0" cy="0" r="1" gradientUnits="userSpaceOnUse" gradientTransform="translate(24.2195 14.928) scale(11.6021)">
<stop offset="0.38" stop-color="#E7E5E6"/>
<stop offset="0.5" stop-color="#DCDADB"/>
<stop offset="0.71" stop-color="#C1BFC0"/>
<stop offset="0.98" stop-color="#959293"/>
<stop offset="1" stop-color="#939091"/>
</radialGradient>
<radialGradient id="paint2_radial_8763_46960" cx="0" cy="0" r="1" gradientUnits="userSpaceOnUse" gradientTransform="translate(30.8587 28.1097) scale(18.3 18.3)">
<stop stop-color="#FEFEFE"/>
<stop offset="0.15" stop-color="#F9F9F9"/>
<stop offset="0.32" stop-color="#ECEBEC"/>
<stop offset="0.38" stop-color="#E7E5E6"/>
<stop offset="0.48" stop-color="#DCDADB"/>
<stop offset="0.6" stop-color="#C9C7C8"/>
<stop offset="1" stop-color="#939091"/>
</radialGradient>
<radialGradient id="paint3_radial_8763_46960" cx="0" cy="0" r="1" gradientUnits="userSpaceOnUse" gradientTransform="translate(30.5758 35.4178) scale(16.0928 16.0928)">
<stop stop-color="#FEFEFE"/>
<stop offset="0.15" stop-color="#F9F9F9"/>
<stop offset="0.32" stop-color="#ECEBEC"/>
<stop offset="0.38" stop-color="#E7E5E6"/>
<stop offset="0.49" stop-color="#DCDADB"/>
<stop offset="0.68" stop-color="#C1BFC0"/>
<stop offset="0.78" stop-color="#B1AFB0"/>
<stop offset="1" stop-color="#939091"/>
</radialGradient>
<radialGradient id="paint4_radial_8763_46960" cx="0" cy="0" r="1" gradientUnits="userSpaceOnUse" gradientTransform="translate(21.2772 39.8194) scale(12.5944)">
<stop offset="0.38" stop-color="#E7E5E6"/>
<stop offset="0.5" stop-color="#DCDADB"/>
<stop offset="0.71" stop-color="#C1BFC0"/>
<stop offset="0.98" stop-color="#959293"/>
<stop offset="1" stop-color="#939091"/>
</radialGradient>
<radialGradient id="paint5_radial_8763_46960" cx="0" cy="0" r="1" gradientUnits="userSpaceOnUse" gradientTransform="translate(11.9509 35.7564) scale(10.7024)">
<stop offset="0.38" stop-color="#E7E5E6"/>
<stop offset="0.5" stop-color="#DCDADB"/>
<stop offset="0.71" stop-color="#C1BFC0"/>
<stop offset="0.98" stop-color="#959293"/>
<stop offset="1" stop-color="#939091"/>
</radialGradient>
<radialGradient id="paint6_radial_8763_46960" cx="0" cy="0" r="1" gradientUnits="userSpaceOnUse" gradientTransform="translate(26.4594 37.1404) scale(16.7246 16.7246)">
<stop stop-color="#FEFEFE"/>
<stop offset="0.15" stop-color="#F9F9F9"/>
<stop offset="0.32" stop-color="#ECEBEC"/>
<stop offset="0.38" stop-color="#E7E5E6"/>
<stop offset="0.48" stop-color="#DCDADB"/>
<stop offset="0.6" stop-color="#C9C7C8"/>
<stop offset="1" stop-color="#939091"/>
</radialGradient>
<radialGradient id="paint7_radial_8763_46960" cx="0" cy="0" r="1" gradientUnits="userSpaceOnUse" gradientTransform="translate(23.9338 22.8429) scale(18.2493 18.2493)">
<stop stop-color="#FEFEFE"/>
<stop offset="0.21" stop-color="#F9F9F9"/>
<stop offset="0.45" stop-color="#ECEBEC"/>
<stop offset="0.53" stop-color="#E7E5E6"/>
<stop offset="0.63" stop-color="#DCDADB"/>
<stop offset="0.78" stop-color="#C1BFC0"/>
<stop offset="0.99" stop-color="#959293"/>
<stop offset="1" stop-color="#939091"/>
</radialGradient>
<radialGradient id="paint8_radial_8763_46960" cx="0" cy="0" r="1" gradientUnits="userSpaceOnUse" gradientTransform="translate(19.9232 25.5523) scale(17.7593 17.7593)">
<stop offset="0.38" stop-color="#E7E5E6"/>
<stop offset="0.5" stop-color="#DCDADB"/>
<stop offset="0.71" stop-color="#C1BFC0"/>
<stop offset="0.98" stop-color="#959293"/>
<stop offset="1" stop-color="#939091"/>
</radialGradient>
<radialGradient id="paint9_radial_8763_46960" cx="0" cy="0" r="1" gradientUnits="userSpaceOnUse" gradientTransform="translate(25.5142 28.1541) scale(16.22 16.22)">
<stop offset="0.05" stop-color="#AAA9AA"/>
<stop offset="0.34" stop-color="#6D6C6D"/>
<stop offset="0.65" stop-color="#323232"/>
<stop offset="0.88" stop-color="#0D0D0D"/>
<stop offset="1"/>
</radialGradient>
<radialGradient id="paint10_radial_8763_46960" cx="0" cy="0" r="1" gradientUnits="userSpaceOnUse" gradientTransform="translate(18.0874 30.8955) scale(18.4717 18.4717)">
<stop stop-color="#FEFEFE"/>
<stop offset="0.15" stop-color="#F9F9F9"/>
<stop offset="0.32" stop-color="#ECEBEC"/>
<stop offset="0.38" stop-color="#E7E5E6"/>
<stop offset="0.48" stop-color="#DCDADB"/>
<stop offset="0.6" stop-color="#C9C7C8"/>
<stop offset="1" stop-color="#939091"/>
</radialGradient>
<radialGradient id="paint11_radial_8763_46960" cx="0" cy="0" r="1" gradientUnits="userSpaceOnUse" gradientTransform="translate(29.6936 26.3044) scale(9.24071 9.24071)">
<stop offset="0.05" stop-color="#AAA9AA"/>
<stop offset="0.34" stop-color="#6D6C6D"/>
<stop offset="0.65" stop-color="#323232"/>
<stop offset="0.88" stop-color="#0D0D0D"/>
<stop offset="1"/>
</radialGradient>
<radialGradient id="paint12_radial_8763_46960" cx="0" cy="0" r="1" gradientUnits="userSpaceOnUse" gradientTransform="translate(24.7825 27.85) scale(15.8462 15.8462)">
<stop stop-color="#FEFEFE"/>
<stop offset="0.28" stop-color="#F9F9F9"/>
<stop offset="0.61" stop-color="#EBECEC"/>
<stop offset="0.96" stop-color="#D4D6D7"/>
<stop offset="1" stop-color="#D1D3D4"/>
</radialGradient>
<radialGradient id="paint13_radial_8763_46960" cx="0" cy="0" r="1" gradientUnits="userSpaceOnUse" gradientTransform="translate(25.8788 28.0826) scale(11.9672 11.9672)">
<stop stop-color="white"/>
<stop offset="0.2" stop-color="#BBBBBB"/>
<stop offset="0.42" stop-color="#797979"/>
<stop offset="0.61" stop-color="#454545"/>
<stop offset="0.78" stop-color="#1F1F1F"/>
<stop offset="0.91" stop-color="#080808"/>
<stop offset="1"/>
</radialGradient>
<radialGradient id="paint14_radial_8763_46960" cx="0" cy="0" r="1" gradientUnits="userSpaceOnUse" gradientTransform="translate(30.8735 19.1562) scale(33.7303 33.7303)">
<stop stop-color="#FFAE39"/>
<stop offset="0.61" stop-color="white"/>
<stop offset="0.67" stop-color="#FAFAFA"/>
<stop offset="0.74" stop-color="#ECECED"/>
<stop offset="0.82" stop-color="#D6D6D7"/>
<stop offset="0.9" stop-color="#B6B7B9"/>
<stop offset="0.98" stop-color="#8E8F92"/>
<stop offset="1" stop-color="#808285"/>
</radialGradient>
<radialGradient id="paint15_radial_8763_46960" cx="0" cy="0" r="1" gradientUnits="userSpaceOnUse" gradientTransform="translate(34.3334 13.3529) scale(34.3543)">
<stop offset="0.02" stop-color="white"/>
<stop offset="0.37" stop-color="#FDFCFC"/>
<stop offset="0.51" stop-color="#F5F5F5"/>
<stop offset="0.62" stop-color="#E9E9E9"/>
<stop offset="0.71" stop-color="#D8D7D8"/>
<stop offset="0.79" stop-color="#C1C0C1"/>
<stop offset="0.86" stop-color="#A6A4A5"/>
<stop offset="0.92" stop-color="#848283"/>
<stop offset="0.98" stop-color="#5F5C5D"/>
<stop offset="1" stop-color="#4F4C4D"/>
</radialGradient>
<radialGradient id="paint16_radial_8763_46960" cx="0" cy="0" r="1" gradientUnits="userSpaceOnUse" gradientTransform="translate(22.3933 31.5397) scale(19.7487)">
<stop offset="0.02" stop-color="white"/>
<stop offset="0.72" stop-color="white"/>
<stop offset="0.83" stop-color="white"/>
<stop offset="0.91" stop-color="#FDFDFD"/>
<stop offset="0.94" stop-color="#F6F6F6"/>
<stop offset="0.96" stop-color="#EAEAEA"/>
<stop offset="0.97" stop-color="#DAD9DA"/>
<stop offset="0.99" stop-color="#C5C3C4"/>
<stop offset="1" stop-color="#A7A5A6"/>
</radialGradient>
<radialGradient id="paint17_radial_8763_46960" cx="0" cy="0" r="1" gradientUnits="userSpaceOnUse" gradientTransform="translate(31.362 21.7815) scale(24.0862 24.0862)">
<stop stop-color="white"/>
<stop offset="1" stop-opacity="0"/>
</radialGradient>
<clipPath id="clip0_8763_46960">
<rect width="54.9629" height="56" fill="white" transform="translate(1)"/>
</clipPath>
</defs>
</svg>
