<svg width="24" height="24" viewBox="0 0 24 24" fill="none" xmlns="http://www.w3.org/2000/svg">
<g clip-path="url(#clip0_8763_46992)">
<path d="M4.30991 15.3555L3.58283 15.5909C2.41883 15.9678 1.63672 17.0431 1.63672 18.2666V24H4.30986L4.30991 15.3555Z" fill="#DED6CA"/>
<path d="M18.2824 24.0001V14.9002L16.4795 14.3164V17.3348L11.9986 21.9408L7.51766 17.3348V14.3164L5.71484 14.9002V24.0001H18.2824Z" fill="#DED6CA"/>
<path d="M8.92578 14V15.7254H9.85222L10.8965 14.8627L9.85222 14H8.92578Z" fill="#DED6CA"/>
<path d="M15.9914 6.63773V3.85645C15.3159 4.31732 14.5072 4.57668 13.6634 4.57668H8.01172V6.63773C8.01172 8.83771 9.80155 10.6275 12.0015 10.6275C14.2015 10.6275 15.9914 8.83776 15.9914 6.63773Z" fill="#DED6CA"/>
<path d="M15.9914 1.86183V0H8.01172V3.17086H13.6633C14.6145 3.17086 15.4981 2.67159 15.9914 1.86183Z" fill="#DED6CA"/>
<path d="M11.9994 13.9509L13.0964 13.0446V11.9222C12.7423 11.9956 12.3757 12.0342 12.0002 12.0342C11.6241 12.0342 11.257 11.9954 10.9023 11.9219V13.0446L11.9994 13.9509Z" fill="#DED6CA"/>
<path d="M15.0761 15.7254V14H14.1497L13.1055 14.8627L14.1497 15.7254H15.0761Z" fill="#DED6CA"/>
<path d="M20.4184 15.5909L19.6914 15.3555V24H22.3645V18.2666C22.3645 17.0431 21.5824 15.9678 20.4184 15.5909Z" fill="#DED6CA"/>
<path d="M9.28516 17.1323L12.0015 19.9244L14.7178 17.1323H13.644L12.0015 15.7754L10.359 17.1323H9.28516Z" fill="#DED6CA"/>
</g>
<defs>
<clipPath id="clip0_8763_46992">
<rect width="24" height="24" fill="white"/>
</clipPath>
</defs>
</svg>
