<svg width="132" height="66" viewBox="0 0 132 66" fill="none" xmlns="http://www.w3.org/2000/svg">
<g id="Payment Method" filter="url(#filter0_d_8763_47375)">
<g id="Alipay">
<path id="Vector" d="M111.484 29.3077L111.505 29.2842H108.118L105.978 36.6999H105.865L103.409 29.2842H99.3828L104.227 41.5224L102.203 45.2528V45.3427H105.364L111.484 29.3077Z" fill="#736F68"/>
<path id="Vector_2" d="M73.9292 29.2842H70.3359V41.4774H73.9292V29.2842Z" fill="#736F68"/>
<path id="Vector_3" d="M98.6783 38.4276V33.3332C98.6783 30.5579 97.0401 29.0332 94.1513 29.0332C92.3076 29.0332 91.0356 29.3523 88.7142 30.0568L89.3503 32.8556C91.466 31.9006 92.3975 31.4916 93.3761 31.4916C94.5582 31.4916 95.0828 32.3331 95.0828 33.6308V33.7208C90.9649 34.4938 89.6907 34.9264 88.8963 35.723C88.3052 36.314 88.0547 37.1556 88.0547 38.1343C88.0547 40.477 89.8749 41.7276 91.5795 41.7276C92.8536 41.7276 93.8772 41.25 95.2649 40.2029L95.5154 41.477H99.1087L98.6783 38.4276ZM95.085 38.5197C94.1299 39.0422 93.5838 39.2478 92.9478 39.2478C92.0827 39.2478 91.5366 38.6782 91.5366 37.7702C91.5366 37.4297 91.6052 37.0871 91.8771 36.8151C92.3097 36.3826 93.1513 36.0635 95.085 35.6095V38.5197Z" fill="#736F68"/>
<path id="Vector_4" d="M82.8701 29.0332C81.551 29.0332 80.5274 29.5343 79.3667 30.4894V29.2838H75.7734V45.3423H79.3667V41.3614C80.0499 41.5434 80.6859 41.6355 81.4589 41.6355C84.6668 41.6355 87.5555 39.2692 87.5555 35.0613C87.5555 31.286 85.4634 29.0332 82.8701 29.0332ZM80.5938 39.3827C80.1848 39.3827 79.7972 39.3377 79.3646 39.2007V32.6051C80.1162 32.0826 80.7287 31.832 81.5017 31.832C82.8444 31.832 83.913 32.9006 83.913 35.1769C83.9151 38.0871 82.3455 39.3827 80.5938 39.3827Z" fill="#736F68"/>
<path id="Vector_5" d="M39.8753 23.0024H24.4678C22.4613 23.0024 20.8359 24.6428 20.8359 26.6643V42.2024C20.8359 44.2239 22.4613 45.8643 24.4678 45.8643H39.8753C41.8818 45.8643 43.505 44.2239 43.505 42.2024V26.6643C43.5072 24.6406 41.8818 23.0024 39.8753 23.0024Z" fill="#736F68"/>
<path id="Vector_6" d="M39.5016 37.3577C38.5958 37.0515 37.3773 36.5825 36.0218 36.0879C36.8355 34.6595 37.4865 33.0342 37.9148 31.2675H33.4457V29.6443H38.9191V28.7385H33.4457V26.0317H31.2122C30.8203 26.0317 30.8203 26.4215 30.8203 26.4215V28.7364H25.2847V29.6422H30.8203V31.2654H26.2483V32.1712H35.1138C34.7905 33.2976 34.3536 34.3576 33.8376 35.3191C30.9616 34.3619 27.8908 33.5867 25.9635 34.0642C24.7301 34.3704 23.9356 34.9165 23.4688 35.4904C21.3274 38.1179 22.8628 42.1095 27.3854 42.1095C30.0601 42.1095 32.6362 40.6063 34.632 38.1286C37.6107 39.572 43.5061 42.0517 43.5061 42.0517V38.5184C43.5082 38.5184 42.7673 38.4584 39.5016 37.3577ZM26.9636 40.5827C23.4367 40.5827 22.3938 37.7817 24.1369 36.2485C24.7194 35.7302 25.7815 35.4776 26.3469 35.4219C28.4412 35.2142 30.3813 36.0193 32.6705 37.1457C31.0623 39.2615 29.0129 40.5827 26.9636 40.5827Z" fill="#FAFAF9"/>
<path id="Vector_7" d="M57.982 25.4385H53.1595L47.7695 41.4756H51.0909L52.001 38.3363H57.71L58.5751 41.4756H62.828L57.982 25.4385ZM52.7505 35.7194L54.8876 28.3273H54.9776L57.0012 35.7194H52.7505Z" fill="#736F68"/>
<path id="Vector_8" d="M67.8785 24.8696H64.2852V41.4742H67.8785V24.8696Z" fill="#736F68"/>
<path id="Vector_9" d="M70.0625 26.3488C70.0625 27.5309 70.9276 28.3275 72.1333 28.3275C73.3389 28.3275 74.204 27.5309 74.204 26.3488C74.204 25.1881 73.3389 24.3701 72.1333 24.3701C70.9276 24.3701 70.0625 25.1881 70.0625 26.3488Z" fill="#736F68"/>
</g>
</g>
<defs>
<filter id="filter0_d_8763_47375" x="-8.5" y="-20" width="140.004" height="104" filterUnits="userSpaceOnUse" color-interpolation-filters="sRGB">
<feFlood flood-opacity="0" result="BackgroundImageFix"/>
<feColorMatrix in="SourceAlpha" type="matrix" values="0 0 0 0 0 0 0 0 0 0 0 0 0 0 0 0 0 0 127 0" result="hardAlpha"/>
<feOffset/>
<feGaussianBlur stdDeviation="10"/>
<feComposite in2="hardAlpha" operator="out"/>
<feColorMatrix type="matrix" values="0 0 0 0 0 0 0 0 0 0 0 0 0 0 0 0 0 0 0.07 0"/>
<feBlend mode="normal" in2="BackgroundImageFix" result="effect1_dropShadow_8763_47375"/>
<feBlend mode="normal" in="SourceGraphic" in2="effect1_dropShadow_8763_47375" result="shape"/>
</filter>
</defs>
</svg>
