<svg width="108" height="69" viewBox="0 0 108 69" fill="none" xmlns="http://www.w3.org/2000/svg">
<g id="Payment Method" filter="url(#filter0_d_8763_47353)">
<path id="ApplePay" fill-rule="evenodd" clip-rule="evenodd" d="M29.0913 25.8215C30.3447 25.9273 31.5982 25.1871 32.3816 24.2487C33.1519 23.2839 33.6611 21.9887 33.5306 20.667C32.4208 20.7199 31.0498 21.4071 30.2664 22.372C29.5483 23.2046 28.9346 24.5527 29.0913 25.8215ZM44.0018 42.8442V22.2392H51.64C55.5831 22.2392 58.338 24.9883 58.338 29.0062C58.338 33.0242 55.5308 35.7997 51.5355 35.7997H47.1615V42.8442H44.0018ZM33.5173 26.0728C32.413 26.0084 31.4055 26.4089 30.5916 26.7324C30.0679 26.9406 29.6244 27.1169 29.2869 27.1169C28.9083 27.1169 28.4465 26.9312 27.928 26.7227L27.928 26.7227C27.2485 26.4494 26.4718 26.1371 25.6572 26.1521C23.7901 26.1785 22.0535 27.2491 21.1004 28.954C19.1419 32.364 20.5912 37.4128 22.4844 40.1883C23.4114 41.5628 24.5212 43.0696 25.9836 43.0167C26.6269 42.9921 27.0897 42.7933 27.5687 42.5876C28.1201 42.3508 28.6929 42.1047 29.5872 42.1047C30.4506 42.1047 30.9984 42.3444 31.5242 42.5744C32.0241 42.7931 32.5043 43.0031 33.217 42.9903C34.7316 42.9638 35.6847 41.6157 36.6117 40.2412C37.6122 38.7659 38.0518 37.3261 38.1185 37.1076L38.1263 37.0823C38.1247 37.0807 38.1124 37.075 38.0906 37.0649L38.0906 37.0649C37.7561 36.9099 35.2 35.7254 35.1755 32.549C35.1509 29.8829 37.2029 28.532 37.526 28.3194C37.5456 28.3065 37.5589 28.2977 37.5649 28.2932C36.2592 26.3371 34.2224 26.1256 33.5173 26.0728ZM64.1093 43.0039C66.0939 43.0039 67.9349 41.9862 68.7706 40.3738H68.8358V42.8453H71.7605V32.5891C71.7605 29.6153 69.4103 27.6989 65.7936 27.6989C62.4381 27.6989 59.9573 29.6417 59.8659 32.3115H62.7123C62.9473 31.0427 64.1093 30.2101 65.7022 30.2101C67.6346 30.2101 68.7183 31.122 68.7183 32.8005V33.9372L64.7752 34.1751C61.1063 34.3998 59.1217 35.9197 59.1217 38.5631C59.1217 41.2329 61.1716 43.0039 64.1093 43.0039ZM64.9578 40.5584C63.2735 40.5584 62.2029 39.7389 62.2029 38.4834C62.2029 37.1881 63.2343 36.4348 65.2059 36.3158L68.7182 36.0911V37.2542C68.7182 39.1838 67.0991 40.5584 64.9578 40.5584ZM81.4615 43.6509C80.195 47.2591 78.7457 48.4486 75.6644 48.4486C75.4293 48.4486 74.6459 48.4222 74.4631 48.3693V45.8978C74.659 45.9242 75.1421 45.9507 75.3902 45.9507C76.7872 45.9507 77.5706 45.3559 78.0537 43.8095L78.341 42.8976L72.9877 27.8965H76.2911L80.0122 40.0692H80.0775L83.7987 27.8965H87.0106L81.4615 43.6509ZM47.1612 24.9355H50.804C53.5459 24.9355 55.1127 26.4157 55.1127 29.0195C55.1127 31.6232 53.5459 33.1167 50.7909 33.1167H47.1612V24.9355Z" fill="#C3BCB1"/>
</g>
<defs>
<filter id="filter0_d_8763_47353" x="-13.1641" y="-18" width="133.332" height="104" filterUnits="userSpaceOnUse" color-interpolation-filters="sRGB">
<feFlood flood-opacity="0" result="BackgroundImageFix"/>
<feColorMatrix in="SourceAlpha" type="matrix" values="0 0 0 0 0 0 0 0 0 0 0 0 0 0 0 0 0 0 127 0" result="hardAlpha"/>
<feOffset/>
<feGaussianBlur stdDeviation="10"/>
<feComposite in2="hardAlpha" operator="out"/>
<feColorMatrix type="matrix" values="0 0 0 0 0 0 0 0 0 0 0 0 0 0 0 0 0 0 0.07 0"/>
<feBlend mode="normal" in2="BackgroundImageFix" result="effect1_dropShadow_8763_47353"/>
<feBlend mode="normal" in="SourceGraphic" in2="effect1_dropShadow_8763_47353" result="shape"/>
</filter>
</defs>
</svg>
