<svg width="107" height="68" viewBox="0 0 107 68" fill="none" xmlns="http://www.w3.org/2000/svg">
<g id="Payment Method" filter="url(#filter0_d_8763_47323)">
<g id="GooglePay">
<g id="Pay">
<path id="Union" fill-rule="evenodd" clip-rule="evenodd" d="M50.915 42.0214V33.9655H55.0728C56.7766 33.9655 58.2146 33.3946 59.3869 32.2687L59.6683 31.9833C61.8097 29.6521 61.669 26.0207 59.3869 23.864C58.2459 22.7222 56.6828 22.1037 55.0728 22.1354H48.3984V42.0214H50.915ZM50.9152 31.5231V24.5773H55.1362C56.0429 24.5773 56.9028 24.9262 57.5437 25.5605C58.9038 26.8926 58.9351 29.1127 57.6219 30.4924C56.9809 31.1743 56.0742 31.5548 55.1362 31.5231H50.9152ZM71.4074 29.4777C70.3289 28.4786 68.8596 27.9712 66.9995 27.9712C64.608 27.9712 62.8104 28.8592 61.6225 30.6195L63.8421 32.0308C64.6549 30.8256 65.7647 30.223 67.1714 30.223C68.0624 30.223 68.9221 30.556 69.5942 31.1586C70.2507 31.7295 70.6259 32.5541 70.6259 33.4263V34.0131C69.6567 33.4739 68.4375 33.1884 66.937 33.1884C65.1863 33.1884 63.7795 33.6008 62.7323 34.4412C61.685 35.2817 61.1536 36.3918 61.1536 37.8031C61.1223 39.0876 61.6694 40.3087 62.6385 41.1333C63.6232 42.0214 64.8737 42.4654 66.343 42.4654C68.078 42.4654 69.4535 41.6884 70.5008 40.1343H70.6102V42.0214H73.0174V33.6325C73.0174 31.8722 72.4859 30.4767 71.4074 29.4777ZM64.5769 39.5161C64.061 39.1355 63.7484 38.5171 63.7484 37.851C63.7484 37.1057 64.0923 36.4872 64.7645 35.9956C65.4524 35.504 66.3122 35.2503 67.3284 35.2503C68.7354 35.2345 69.8297 35.5516 70.6114 36.1859C70.6114 37.2643 70.1893 38.1999 69.3607 38.9928C68.6103 39.754 67.5941 40.1822 66.5311 40.1822C65.8276 40.198 65.1397 39.9602 64.5769 39.5161ZM78.4253 48.0002L86.8346 28.4156H84.0992L80.2072 38.1841H80.1603L76.1744 28.4156H73.439L78.9567 41.1496L75.8305 48.0002H78.4253Z" fill="#736F68"/>
</g>
<g id="G">
<path id="Blue" d="M42.2267 32.2215C42.2267 31.4445 42.1642 30.6674 42.0391 29.9062H31.4258V34.2989H37.5062C37.2561 35.7103 36.4433 36.9789 35.2553 37.7718V40.6263H38.8817C41.0075 38.644 42.2267 35.7103 42.2267 32.2215Z" fill="#736F68"/>
<path id="Green" d="M31.4256 43.3851C34.458 43.3851 37.0215 42.3702 38.8815 40.6258L35.2552 37.7714C34.2392 38.4691 32.9418 38.8656 31.4256 38.8656C28.487 38.8656 26.0017 36.8516 25.1108 34.1558H21.375V37.1054C23.282 40.9589 27.174 43.3851 31.4256 43.3851Z" fill="#736F68"/>
<path id="Yellow" d="M25.112 34.1563C24.643 32.7449 24.643 31.2067 25.112 29.7794V26.8457H21.3756C19.7654 30.0649 19.7654 33.8708 21.3756 37.09L25.112 34.1563Z" fill="#736F68"/>
<path id="Red" d="M31.4256 25.0695C33.0356 25.0378 34.583 25.6563 35.7397 26.7822L38.9597 23.5155C36.912 21.5808 34.2235 20.5183 31.4256 20.55C27.174 20.55 23.282 22.9921 21.375 26.8456L25.1108 29.7952C26.0017 27.0835 28.487 25.0695 31.4256 25.0695Z" fill="#736F68"/>
</g>
</g>
</g>
<defs>
<filter id="filter0_d_8763_47323" x="-13.1641" y="-20" width="133.332" height="104" filterUnits="userSpaceOnUse" color-interpolation-filters="sRGB">
<feFlood flood-opacity="0" result="BackgroundImageFix"/>
<feColorMatrix in="SourceAlpha" type="matrix" values="0 0 0 0 0 0 0 0 0 0 0 0 0 0 0 0 0 0 127 0" result="hardAlpha"/>
<feOffset/>
<feGaussianBlur stdDeviation="10"/>
<feComposite in2="hardAlpha" operator="out"/>
<feColorMatrix type="matrix" values="0 0 0 0 0 0 0 0 0 0 0 0 0 0 0 0 0 0 0.07 0"/>
<feBlend mode="normal" in2="BackgroundImageFix" result="effect1_dropShadow_8763_47323"/>
<feBlend mode="normal" in="SourceGraphic" in2="effect1_dropShadow_8763_47323" result="shape"/>
</filter>
</defs>
</svg>
