<svg width="102" height="94" viewBox="0 0 102 94" fill="none" xmlns="http://www.w3.org/2000/svg">
<g id="Payment Method" filter="url(#filter0_d_8763_47314)">
<g id="PayPal">
<path id="Vector" fill-rule="evenodd" clip-rule="evenodd" d="M27.3612 57.4829H22.5899C22.2634 57.4829 21.9857 57.7202 21.9348 58.0424L20.005 70.2775C19.9666 70.519 20.1536 70.7366 20.3985 70.7366H22.6764C23.0029 70.7366 23.2806 70.4993 23.3315 70.1764L23.852 66.8765C23.9022 66.5533 24.1805 66.3163 24.5064 66.3163H26.0168C29.1598 66.3163 30.9737 64.7953 31.4476 61.7815C31.661 60.4629 31.4566 59.4268 30.839 58.7011C30.161 57.9046 28.958 57.4829 27.3612 57.4829ZM27.9117 61.9516C27.6508 63.6637 26.3426 63.6637 25.0778 63.6637H24.3578L24.8629 60.4661C24.8929 60.2731 25.0603 60.1307 25.2557 60.1307H25.5857C26.4473 60.1307 27.2601 60.1307 27.6802 60.6217C27.9304 60.9149 28.0072 61.3501 27.9117 61.9516ZM41.6238 61.8967H39.3389C39.1442 61.8967 38.976 62.0391 38.946 62.2325L38.845 62.8714L38.6851 62.6399C38.1905 61.9219 37.0876 61.682 35.9867 61.682C33.4616 61.682 31.3052 63.5943 30.8852 66.2769C30.6669 67.6149 30.9772 68.8944 31.7362 69.7867C32.4327 70.6071 33.429 70.949 34.6142 70.949C36.6485 70.949 37.7769 69.6408 37.7769 69.6408L37.6749 70.2759C37.6365 70.5187 37.8234 70.7363 38.0669 70.7363H40.1251C40.4525 70.7363 40.7285 70.499 40.7802 70.1761L42.0151 62.3558C42.0542 62.1153 41.8679 61.8967 41.6238 61.8967ZM38.4388 66.3438C38.2183 67.6491 37.1822 68.5253 35.8611 68.5253C35.1976 68.5253 34.6672 68.3126 34.3269 67.9093C33.9892 67.509 33.8607 66.9388 33.9682 66.3041C34.1742 65.0097 35.2276 64.1051 36.5288 64.1051C37.1774 64.1051 37.7049 64.3204 38.0523 64.7272C38.4004 65.1382 38.5386 65.7116 38.4388 66.3438ZM51.4965 61.8964H53.7927C54.1142 61.8964 54.3018 62.257 54.1191 62.5208L46.4825 73.5439C46.3589 73.7224 46.1551 73.8286 45.9375 73.8286H43.6443C43.3214 73.8286 43.1328 73.4651 43.3198 73.2007L45.6976 69.8442L43.1687 62.4223C43.0812 62.1644 43.2717 61.8964 43.5461 61.8964H45.8022C46.0954 61.8964 46.354 62.0888 46.4386 62.3694L47.7807 66.852L50.9476 62.1873C51.0716 62.0052 51.2776 61.8964 51.4965 61.8964Z" fill="#736F68"/>
<path id="Vector_2" fill-rule="evenodd" clip-rule="evenodd" d="M76.2875 70.6902L78.2457 58.2314C78.2757 58.038 78.4433 57.8957 78.6379 57.895H80.8424C81.0859 57.895 81.2728 58.1133 81.2344 58.3548L79.3033 70.5892C79.253 70.912 78.9753 71.1494 78.6483 71.1494H76.6795C76.436 71.1494 76.2491 70.9317 76.2875 70.6902ZM61.2911 57.8957H56.5189C56.1931 57.8957 55.9154 58.133 55.8644 58.4552L53.9347 70.6902C53.8963 70.9317 54.0832 71.1494 54.327 71.1494H56.7755C57.0032 71.1494 57.1978 70.9834 57.2334 70.7574L57.7809 67.2892C57.8313 66.9661 58.1096 66.7291 58.4354 66.7291H59.945C63.0887 66.7291 64.9022 65.2081 65.3765 62.1942C65.5906 60.8757 65.3849 59.8396 64.7676 59.1138C64.0899 58.3173 62.8879 57.8957 61.2911 57.8957ZM61.8415 62.3644C61.5813 64.0765 60.2731 64.0765 59.0075 64.0765H58.2881L58.7941 60.8789C58.8241 60.6858 58.99 60.5434 59.186 60.5434H59.516C60.377 60.5434 61.1906 60.5434 61.6104 61.0345C61.8609 61.3277 61.9371 61.7629 61.8415 62.3644ZM75.5524 62.3095H73.2691C73.0728 62.3095 72.9062 62.4519 72.8768 62.6452L72.7758 63.2842L72.6153 63.0527C72.1207 62.3347 71.0185 62.0948 69.9175 62.0948C67.3924 62.0948 65.2367 64.0071 64.8167 66.6897C64.5991 68.0276 64.908 69.3071 65.6671 70.1995C66.3648 71.0199 67.3598 71.3618 68.545 71.3618C70.5794 71.3618 71.7074 70.0536 71.7074 70.0536L71.6057 70.6886C71.5673 70.9314 71.7543 71.149 71.9993 71.149H74.0566C74.3823 71.149 74.66 70.9117 74.711 70.5889L75.9466 62.7686C75.9844 62.528 75.7974 62.3095 75.5524 62.3095ZM72.3677 66.7565C72.1485 68.0618 71.1111 68.9381 69.7897 68.9381C69.1275 68.9381 68.5961 68.7253 68.2554 68.3221C67.9177 67.9217 67.7908 67.3516 67.8971 66.7168C68.104 65.4225 69.1562 64.5178 70.4573 64.5178C71.1063 64.5178 71.6335 64.7332 71.9812 65.14C72.3306 65.551 72.4688 66.1244 72.3677 66.7565Z" fill="#736F68"/>
<path id="Vector_3" d="M45.0178 53.1063L45.6045 49.3805L44.2978 49.3502H38.0586L42.3946 21.8567C42.4078 21.7737 42.4517 21.6963 42.5157 21.6414C42.5796 21.5864 42.6616 21.5562 42.7468 21.5562H53.2672C56.7599 21.5562 59.17 22.2829 60.4285 23.7174C61.0184 24.3904 61.3942 25.0936 61.576 25.8675C61.7664 26.6796 61.77 27.6497 61.5837 28.833L61.5701 28.9194V29.6775L62.1603 30.0118C62.6572 30.2753 63.0517 30.5771 63.3546 30.9225C63.8595 31.4979 64.186 32.2292 64.3238 33.0961C64.4662 33.9878 64.4191 35.0488 64.186 36.25C63.9167 37.6318 63.4815 38.8353 62.8939 39.8201C62.3531 40.7274 61.6644 41.4798 60.8469 42.0632C60.0663 42.6173 59.1387 43.038 58.09 43.3072C57.0737 43.5716 55.9153 43.7053 54.6445 43.7053H53.8257C53.2404 43.7053 52.6715 43.9161 52.2253 44.2942C51.7778 44.68 51.4815 45.2069 51.3907 45.7836L51.3291 46.119L50.2927 52.6856L50.2456 52.9268C50.2333 53.0033 50.212 53.0414 50.1807 53.0672C50.1526 53.0905 50.1122 53.1063 50.0728 53.1063H45.0178Z" fill="#736F68"/>
<path id="Vector_4" d="M62.7182 29.0073C62.6869 29.2081 62.651 29.4133 62.6107 29.6242C61.223 36.7474 56.4767 39.2081 50.4143 39.2081H47.3278C46.5865 39.2081 45.9618 39.7465 45.8462 40.4778L44.2658 50.5004L43.8183 53.3412C43.7431 53.8213 44.1134 54.2542 44.5977 54.2542H50.0724C50.7207 54.2542 51.2712 53.7832 51.3732 53.1439L51.4271 52.8656L52.458 46.3245L52.5242 45.9658C52.625 45.3243 53.1767 44.8532 53.825 44.8532H54.6438C59.9477 44.8532 64.1 42.6998 65.3136 36.4681C65.8205 33.8649 65.558 31.6913 64.2166 30.1625C63.8107 29.7016 63.3071 29.3191 62.7182 29.0073Z" fill="#736F68"/>
<path id="Vector_5" d="M61.2684 28.4291C61.0566 28.3674 60.8377 28.3114 60.6133 28.2609C60.3879 28.2116 60.1568 28.1678 59.9191 28.1297C59.0868 27.9951 58.1751 27.9312 57.1981 27.9312H48.9523C48.7492 27.9312 48.5564 27.9771 48.3837 28.0601C48.0034 28.2429 47.7209 28.603 47.6524 29.0438L45.898 40.1542L45.8477 40.4783C45.9632 39.747 46.588 39.2087 47.3293 39.2087H50.4158C56.4781 39.2087 61.2248 36.7468 62.6121 29.6247C62.6534 29.4139 62.6883 29.2086 62.7196 29.0079C62.3687 28.8217 61.9883 28.6624 61.579 28.5267C61.4782 28.4931 61.3739 28.4605 61.2684 28.4291Z" fill="#C3BCB1"/>
<path id="Vector_6" d="M47.65 29.0428C47.7184 28.602 48.0012 28.242 48.3812 28.0603C48.5553 27.9773 48.747 27.9313 48.9498 27.9313H57.1959C58.1729 27.9313 59.0847 27.9952 59.9167 28.1298C60.1546 28.168 60.3858 28.2117 60.6111 28.261C60.8355 28.3115 61.0541 28.3676 61.2662 28.4293C61.3715 28.4607 61.4758 28.4932 61.5778 28.5257C61.9872 28.6614 62.3675 28.8218 62.7184 29.0069C63.1314 26.3745 62.7152 24.5822 61.292 22.9593C59.723 21.1726 56.8908 20.4077 53.2671 20.4077H42.7464C42.0061 20.4077 41.3749 20.946 41.2603 21.6785L36.8784 49.4545C36.7919 50.004 37.2158 50.5 37.7698 50.5H44.2651L45.8959 40.1532L47.65 29.0428Z" fill="#736F68"/>
</g>
</g>
<defs>
<filter id="filter0_d_8763_47314" x="-16.5" y="-8" width="133.332" height="104" filterUnits="userSpaceOnUse" color-interpolation-filters="sRGB">
<feFlood flood-opacity="0" result="BackgroundImageFix"/>
<feColorMatrix in="SourceAlpha" type="matrix" values="0 0 0 0 0 0 0 0 0 0 0 0 0 0 0 0 0 0 127 0" result="hardAlpha"/>
<feOffset/>
<feGaussianBlur stdDeviation="10"/>
<feComposite in2="hardAlpha" operator="out"/>
<feColorMatrix type="matrix" values="0 0 0 0 0 0 0 0 0 0 0 0 0 0 0 0 0 0 0.07 0"/>
<feBlend mode="normal" in2="BackgroundImageFix" result="effect1_dropShadow_8763_47314"/>
<feBlend mode="normal" in="SourceGraphic" in2="effect1_dropShadow_8763_47314" result="shape"/>
</filter>
</defs>
</svg>
