<svg width="94" height="78" viewBox="0 0 94 78" fill="none" xmlns="http://www.w3.org/2000/svg">
<g id="Payment Method" filter="url(#filter0_d_8763_47340)">
<path id="WeChat" d="M41.8679 43.9496C41.6813 44.0461 41.4713 44.1018 41.248 44.1018C40.7313 44.1018 40.2821 43.8108 40.0462 43.38L39.9559 43.1778L36.1935 34.7255C36.1529 34.6336 36.1277 34.5296 36.1277 34.4284C36.1277 34.0388 36.4363 33.7233 36.8168 33.7233C36.9711 33.7233 37.114 33.7756 37.2289 33.8631L41.6689 37.0994C41.9932 37.3164 42.3808 37.4438 42.7974 37.4438C43.0461 37.4438 43.2831 37.3965 43.5042 37.3141L64.3837 27.8007C60.641 23.2852 54.4773 20.334 47.5022 20.334C36.0881 20.334 26.8359 28.2275 26.8359 37.9653C26.8359 43.2775 29.6196 48.0597 33.9767 51.292C34.3262 51.5475 34.5551 51.9673 34.5551 52.441C34.5551 52.5977 34.5223 52.7406 34.4823 52.89C34.1343 54.2188 33.5773 56.347 33.5514 56.4468C33.5079 56.6135 33.4402 56.7878 33.4402 56.9622C33.4402 57.3518 33.7484 57.6673 34.1295 57.6673C34.2788 57.6673 34.401 57.6104 34.5272 57.5361L39.0515 54.8618C39.3919 54.6611 39.7522 54.5362 40.1493 54.5362C40.3604 54.5362 40.5645 54.5698 40.7564 54.6298C42.867 55.2514 45.1443 55.5967 47.5024 55.5967C58.9158 55.5967 68.1693 47.7027 68.1693 37.9653C68.1693 35.0159 67.3155 32.2382 65.815 29.7947L42.0193 43.8602L41.8679 43.9496Z" fill="#736F68"/>
</g>
<defs>
<filter id="filter0_d_8763_47340" x="-19.832" y="-13" width="133.332" height="104" filterUnits="userSpaceOnUse" color-interpolation-filters="sRGB">
<feFlood flood-opacity="0" result="BackgroundImageFix"/>
<feColorMatrix in="SourceAlpha" type="matrix" values="0 0 0 0 0 0 0 0 0 0 0 0 0 0 0 0 0 0 127 0" result="hardAlpha"/>
<feOffset/>
<feGaussianBlur stdDeviation="10"/>
<feComposite in2="hardAlpha" operator="out"/>
<feColorMatrix type="matrix" values="0 0 0 0 0 0 0 0 0 0 0 0 0 0 0 0 0 0 0.07 0"/>
<feBlend mode="normal" in2="BackgroundImageFix" result="effect1_dropShadow_8763_47340"/>
<feBlend mode="normal" in="SourceGraphic" in2="effect1_dropShadow_8763_47340" result="shape"/>
</filter>
</defs>
</svg>
