<svg width="101" height="78" viewBox="0 0 101 78" fill="none" xmlns="http://www.w3.org/2000/svg">
<g id="Payment Method" filter="url(#filter0_d_8763_47363)">
<g id="Mastercard">
<path id="Left" fill-rule="evenodd" clip-rule="evenodd" d="M62.3032 57.1499C72.353 57.1499 80.5 48.9084 80.5 38.7419C80.5 28.5755 72.353 20.334 62.3032 20.334C57.7992 20.334 53.6774 21.9893 50.4999 24.7315C47.3224 21.9895 43.2006 20.3342 38.6967 20.3342C28.6469 20.3342 20.5 28.5757 20.5 38.7421C20.5 48.9086 28.6469 57.1501 38.6967 57.1501C43.2007 57.1501 47.3225 55.4947 50.5001 52.7526C53.6776 55.4946 57.7993 57.1499 62.3032 57.1499Z" fill="#C3BCB1"/>
<path id="Right" fill-rule="evenodd" clip-rule="evenodd" d="M50.5 52.7525C54.4126 49.3762 56.8935 44.3522 56.8935 38.7419C56.8935 33.1317 54.4126 28.1077 50.5 24.7313C53.6775 21.9893 57.7993 20.334 62.3032 20.334C72.353 20.334 80.4999 28.5755 80.4999 38.7419C80.4999 48.9084 72.353 57.1499 62.3032 57.1499C57.7993 57.1499 53.6775 55.4946 50.5 52.7525Z" fill="#736F68"/>
<path id="Middle" fill-rule="evenodd" clip-rule="evenodd" d="M50.499 52.7526C54.4115 49.3763 56.8925 44.3522 56.8925 38.742C56.8925 33.1318 54.4115 28.1078 50.499 24.7314C46.5864 28.1078 44.1055 33.1318 44.1055 38.742C44.1055 44.3522 46.5864 49.3763 50.499 52.7526Z" fill="#FAFAF9"/>
</g>
</g>
<defs>
<filter id="filter0_d_8763_47363" x="-16.832" y="-13" width="133.332" height="104" filterUnits="userSpaceOnUse" color-interpolation-filters="sRGB">
<feFlood flood-opacity="0" result="BackgroundImageFix"/>
<feColorMatrix in="SourceAlpha" type="matrix" values="0 0 0 0 0 0 0 0 0 0 0 0 0 0 0 0 0 0 127 0" result="hardAlpha"/>
<feOffset/>
<feGaussianBlur stdDeviation="10"/>
<feComposite in2="hardAlpha" operator="out"/>
<feColorMatrix type="matrix" values="0 0 0 0 0 0 0 0 0 0 0 0 0 0 0 0 0 0 0.07 0"/>
<feBlend mode="normal" in2="BackgroundImageFix" result="effect1_dropShadow_8763_47363"/>
<feBlend mode="normal" in="SourceGraphic" in2="effect1_dropShadow_8763_47363" result="shape"/>
</filter>
</defs>
</svg>
