<svg width="106" height="64" viewBox="0 0 106 64" fill="none" xmlns="http://www.w3.org/2000/svg">
<g id="Payment Method" filter="url(#filter0_d_8763_47306)">
<path id="visa-logo" fill-rule="evenodd" clip-rule="evenodd" d="M36.502 43.3552H30.8478L26.6078 27.1795C26.4066 26.4354 25.9793 25.7776 25.3507 25.4676C23.7821 24.6884 22.0536 24.0684 20.168 23.7556V23.1329H29.2764C30.5335 23.1329 31.4763 24.0684 31.6335 25.1548L33.8334 36.8229L39.4848 23.1329H44.9819L36.502 43.3552ZM48.1247 43.3552H42.7848L47.1819 23.1329H52.5218L48.1247 43.3552ZM59.4302 28.7351C59.5873 27.6459 60.5302 27.0231 61.6301 27.0231C63.3586 26.8668 65.2415 27.1795 66.8129 27.9559L67.7557 23.602C66.1843 22.9792 64.4558 22.6665 62.8872 22.6665C57.7044 22.6665 53.9331 25.4676 53.9331 29.3551C53.9331 32.3126 56.6045 33.8655 58.4901 34.8009C60.5302 35.7337 61.3158 36.3565 61.1587 37.2893C61.1587 38.6885 59.5873 39.3113 58.0187 39.3113C56.1331 39.3113 54.2474 38.8449 52.5217 38.0657L51.5788 42.4224C53.4645 43.1988 55.5045 43.5115 57.3902 43.5115C63.2015 43.6652 66.8129 40.8668 66.8129 36.6665C66.8129 31.3771 59.4302 31.0671 59.4302 28.7351ZM85.5015 43.3552L81.2616 23.1329H76.7074C75.7645 23.1329 74.8217 23.7556 74.5074 24.6884L66.6561 43.3552H72.1531L73.2503 40.4004H80.0045L80.633 43.3552H85.5015ZM77.4931 28.5783L79.0617 36.1997H74.6646L77.4931 28.5783Z" fill="#736F68"/>
</g>
<defs>
<filter id="filter0_d_8763_47306" x="-11.832" y="-20" width="133.332" height="104" filterUnits="userSpaceOnUse" color-interpolation-filters="sRGB">
<feFlood flood-opacity="0" result="BackgroundImageFix"/>
<feColorMatrix in="SourceAlpha" type="matrix" values="0 0 0 0 0 0 0 0 0 0 0 0 0 0 0 0 0 0 127 0" result="hardAlpha"/>
<feOffset/>
<feGaussianBlur stdDeviation="10"/>
<feComposite in2="hardAlpha" operator="out"/>
<feColorMatrix type="matrix" values="0 0 0 0 0 0 0 0 0 0 0 0 0 0 0 0 0 0 0.07 0"/>
<feBlend mode="normal" in2="BackgroundImageFix" result="effect1_dropShadow_8763_47306"/>
<feBlend mode="normal" in="SourceGraphic" in2="effect1_dropShadow_8763_47306" result="shape"/>
</filter>
</defs>
</svg>
